<svg viewBox="0 0 60 60" xmlns="http://www.w3.org/2000/svg"><path d="m0 0h60v60h-60z" fill="none"/><rect fill="#d8e3f0" height="42.52" rx="1.33" width="36.03" x="10.19" y="8.56"/><path d="m14.91 13.29h26.58v33.07h-26.58z" fill="#edf4ff"/><path d="m46.13 38.8-4.37 2.51-4.36-2.51-8.06 13.95 3.86-.48 1.5 3.58 7.06-12.22 7.06 12.22 1.51-3.58 3.86.48z" fill="#f65855"/><circle cx="41.76" cy="39.11" fill="#ffc670" r="8.76"/><path d="m42.58 30.39a7.25 7.25 0 1 1 -9.58 9.54 8.76 8.76 0 1 0 9.54-9.54z" fill="#ffb75e"/><circle cx="41.76" cy="39.11" fill="none" r="8.76"/><path d="m41.76 34.56 1.76 2.28 2.71.97-1.62 2.38-.08 2.88-2.77-.81-2.76.81-.09-2.88-1.62-2.38 2.71-.97z" fill="#ffdead"/><g fill="none"><path d="m23.7 18.3h9.01"/><path d="m19.79 36.67h5.11"/><path d="m19.79 41.09h9.25"/></g><g fill="#3d3d63"><path d="m55.05 52.25-4.81-8.32a9.75 9.75 0 0 0 -3-12.91v-21.12a2.34 2.34 0 0 0 -2.34-2.34h-33.38a2.33 2.33 0 0 0 -2.33 2.34v39.85a2.33 2.33 0 0 0 2.33 2.33h17.05l-.1.17a1 1 0 0 0 0 1.06 1 1 0 0 0 1 .44l3.11-.4 1.21 2.89a1 1 0 0 0 .86.61h.06a1 1 0 0 0 .87-.5l4.42-7.64a10.21 10.21 0 0 0 1.77.17 10.43 10.43 0 0 0 1.78-.17l4.45 7.64a1 1 0 0 0 .87.5h.06a1 1 0 0 0 .86-.61l1.21-2.89 3.11.4a1 1 0 0 0 1-1.5zm-43.53-2.17a.33.33 0 0 1 -.33-.33v-39.85a.34.34 0 0 1 .33-.34h33.36a.34.34 0 0 1 .34.34v20.1a9.52 9.52 0 0 0 -2.73-.61v-16.1a1 1 0 0 0 -1-1h-26.58a1 1 0 0 0 -1 1v33.06a1 1 0 0 0 1 1h16.39l-1.58 2.73zm20.48-10.97a9.74 9.74 0 0 0 1.28 4.82l-.83 1.42h-16.54v-31.06h24.58v15.15a9.78 9.78 0 0 0 -8.49 9.67zm2.84 14.5-.72-1.73a1 1 0 0 0 -1-.6l-1.86.23 3.36-5.82a9.75 9.75 0 0 0 3.38 2.43zm-.84-14.5a7.76 7.76 0 1 1 7.76 7.77 7.77 7.77 0 0 1 -7.76-7.77zm16.45 12.17a1 1 0 0 0 -1.05.6l-.72 1.73-3.17-5.49a9.75 9.75 0 0 0 3.49-2.43l3.36 5.82z"/><path d="m46.57 36.87-2.43-.87-1.59-2a1 1 0 0 0 -1.55 0l-1.59 2-2.41.87a1 1 0 0 0 -.61.63 1 1 0 0 0 .12.87l1.46 2.14.03 2.59a1 1 0 0 0 .41.78 1 1 0 0 0 .87.15l2.48-.73 2.49.73a.86.86 0 0 0 .28 0 1 1 0 0 0 .58-.19 1 1 0 0 0 .42-.78l.07-2.59 1.46-2.14a1 1 0 0 0 .13-.87 1 1 0 0 0 -.62-.59zm-2.78 2.76a1 1 0 0 0 -.18.53v1.59l-1.61-.45a1 1 0 0 0 -.56 0l-1.44.45-.05-1.59a1 1 0 0 0 -.18-.53l-.89-1.32 1.49-.53a1.09 1.09 0 0 0 .46-.33l1-1.26 1 1.26a1.09 1.09 0 0 0 .46.33l1.49.53z"/><path d="m32.71 17.3h-9a1 1 0 0 0 0 2h9a1 1 0 0 0 0-2z"/><path d="m19.79 37.67h5.11a1 1 0 0 0 0-2h-5.11a1 1 0 0 0 0 2z"/><path d="m29 40.09h-9.21a1 1 0 0 0 0 2h9.21a1 1 0 0 0 0-2z"/></g></svg>