<svg viewBox="0 0 60 60" xmlns="http://www.w3.org/2000/svg"><path d="m0 0h60v60h-60z" fill="none"/><rect fill="#ffc670" height="46.67" rx="2.01" transform="matrix(.97437006 .22495105 -.22495105 .97437006 7.74 -5.95)" width="32" x="14" y="7.67"/><rect fill="#fff6e6" height="46.67" rx="2.01" width="32" x="14" y="7.67"/><path d="m25.69 15.53-2.36 2.36-2.33-2.36a3.33 3.33 0 1 0 5.69 2.36 3.36 3.36 0 0 0 -1-2.36z" fill="#79deb4"/><g fill="#3d3d63"><path d="m49.1 10.44-2.1-.44v-.32a3 3 0 0 0 -3-3h-11.22l-10.93-2.54a3 3 0 0 0 -3.62 2.26l-.06.27h-2.17a3 3 0 0 0 -3 3v19.39l-4.36 18.94a3 3 0 0 0 2.26 3.61l2.1.49v.27a3 3 0 0 0 3 3h11.32l.11.05 10.72 2.48a3 3 0 0 0 3.62-2.26l.06-.27h2.17a3 3 0 0 0 3-3v-19.43l4.36-18.89a3 3 0 0 0 -2.26-3.61zm-36.1 39.56-1.65-.39a1 1 0 0 1 -.76-1.21l2.41-10.4zm8.4-43.91 2.49.58h-3.63a1 1 0 0 1 1.14-.58zm17.2 49.82-2.48-.58h3.62a1 1 0 0 1 -1.14.58zm6.4-3.59a1 1 0 0 1 -1 1h-28a1 1 0 0 1 -1-1v-42.64a1 1 0 0 1 1-1h28a1 1 0 0 1 1 1zm4.41-38.72-2.41 10.45v-12.05l1.65.38a1 1 0 0 1 .76 1.22z"/><path d="m40 47.83h-19v-8.13a1 1 0 0 0 -2 0v9.13a1 1 0 0 0 1 1h20a1 1 0 0 0 0-2z"/><path d="m23.33 22.22a4.34 4.34 0 0 0 4.34-4.33 4.29 4.29 0 0 0 -.67-2.27l1.82-1.81a1 1 0 0 0 -1.42-1.42l-4.08 4.08-2.27-2.27a1 1 0 0 0 -1.41 0 1 1 0 0 0 0 1.41 4.28 4.28 0 0 0 -.64 2.28 4.33 4.33 0 0 0 4.33 4.33zm-2.19-5.11 1.49 1.49a1 1 0 0 0 .7.29 1 1 0 0 0 .67-.29l1.49-1.49a2.56 2.56 0 0 1 .14.78 2.34 2.34 0 0 1 -4.67 0 2.29 2.29 0 0 1 .18-.78z"/><path d="m23.33 33.18a4.34 4.34 0 1 0 -4.33-4.34 4.35 4.35 0 0 0 4.33 4.34zm0-6.67a2.34 2.34 0 1 1 -2.33 2.33 2.34 2.34 0 0 1 2.33-2.33z"/><path d="m40 35.38h-3.92a1 1 0 0 0 0 2h1.51l-5.59 5.62-3.93-4a1 1 0 0 0 -1.41 0l-3.58 3.59a1 1 0 1 0 1.41 1.41l2.88-2.88 3.92 3.93a1 1 0 0 0 1.42 0l6.29-6.25v1.5a1 1 0 0 0 2 0v-3.92a1 1 0 0 0 -1-1z"/><path d="m31.33 27.84h4.29a1 1 0 0 0 0-2h-4.29a1 1 0 0 0 0 2z"/><path d="m31.33 31.85h8.23a1 1 0 0 0 0-2h-8.23a1 1 0 0 0 0 2z"/><path d="m31.33 16.89h4.29a1 1 0 0 0 0-2h-4.29a1 1 0 0 0 0 2z"/><path d="m31.33 20.89h8.23a1 1 0 0 0 0-2h-8.23a1 1 0 0 0 0 2z"/></g></svg>