<svg viewBox="0 0 72.59 38.7" xmlns="http://www.w3.org/2000/svg"><path d="m16.51 7a4.09 4.09 0 0 0 1.12.75 3 3 0 0 0 1.26.29 1.88 1.88 0 0 0 1.19-.32 1 1 0 0 0 .41-.85 1 1 0 0 0 -.1-.48 1.08 1.08 0 0 0 -.29-.34 2.53 2.53 0 0 0 -.45-.27l-.57-.25-1.27-.53a4.34 4.34 0 0 1 -.66-.35 2.91 2.91 0 0 1 -.6-.5 2.28 2.28 0 0 1 -.55-1.57 2.27 2.27 0 0 1 .23-1 2.57 2.57 0 0 1 .64-.82 3 3 0 0 1 1-.55 3.77 3.77 0 0 1 1.13-.21 3.9 3.9 0 0 1 1.54.32 4 4 0 0 1 1.27.85l-.81 1.03a4.08 4.08 0 0 0 -.92-.57 2.61 2.61 0 0 0 -1.08-.22 1.74 1.74 0 0 0 -1 .29.93.93 0 0 0 -.39.79.84.84 0 0 0 .12.46 1.22 1.22 0 0 0 .32.34 2.63 2.63 0 0 0 .47.27l.55.23 1.25.52a4.29 4.29 0 0 1 .74.39 2.7 2.7 0 0 1 .58.52 2.25 2.25 0 0 1 .39.68 2.59 2.59 0 0 1 .14.89 2.5 2.5 0 0 1 -.22 1.05 2.52 2.52 0 0 1 -.65.86 3.2 3.2 0 0 1 -1 .59 4.09 4.09 0 0 1 -1.38.22 4.74 4.74 0 0 1 -3.3-1.34zm6.87.43a1.9 1.9 0 0 1 1-1.71 7.69 7.69 0 0 1 3.08-.84 1.85 1.85 0 0 0 -.07-.51 1.26 1.26 0 0 0 -.25-.37 1 1 0 0 0 -.38-.29 1.41 1.41 0 0 0 -.58-.11 2.64 2.64 0 0 0 -1 .2 6 6 0 0 0 -.93.48l-.59-1.08a7 7 0 0 1 1.28-.63 4.32 4.32 0 0 1 1.53-.27 2.36 2.36 0 0 1 1.94.7 3.38 3.38 0 0 1 .59 2.25v4.07h-1.28l-.13-.76a5.05 5.05 0 0 1 -1 .66 2.49 2.49 0 0 1 -1.14.27 2 2 0 0 1 -1.45-.55 2 2 0 0 1 -.62-1.46zm1.62-.08a.79.79 0 0 0 .27.67 1.13 1.13 0 0 0 .71.21 1.55 1.55 0 0 0 .72-.23 3.63 3.63 0 0 0 .73-.56v-1.5a7.35 7.35 0 0 0 -1.18.22 3.24 3.24 0 0 0 -.76.32 1.13 1.13 0 0 0 -.41.4 1 1 0 0 0 -.08.47zm5.19-4.9h1.64l1.05 3.55.29 1q.15.52.29 1h.06q.15-.53.29-1t.29-1l1.09-3.57h1.55l-2.34 6.89h-1.86zm7.34 3.44a4.08 4.08 0 0 1 .27-1.51 3.47 3.47 0 0 1 .71-1.13 3.13 3.13 0 0 1 1-.71 2.9 2.9 0 0 1 1.18-.25 3 3 0 0 1 1.23.24 2.4 2.4 0 0 1 .89.67 3 3 0 0 1 .54 1 4.53 4.53 0 0 1 .18 1.32 3.24 3.24 0 0 1 -.07.76h-4.46a2.27 2.27 0 0 0 .65 1.44 1.94 1.94 0 0 0 1.38.5 2.53 2.53 0 0 0 .83-.13 3.7 3.7 0 0 0 .76-.37l.55 1a4.94 4.94 0 0 1 -1.09.53 3.8 3.8 0 0 1 -1.26.21 3.57 3.57 0 0 1 -1.33-.25 3.16 3.16 0 0 1 -1.08-.71 3.23 3.23 0 0 1 -.72-1.13 4.16 4.16 0 0 1 -.21-1.48zm4.61-.62a2.12 2.12 0 0 0 -.4-1.27 1.23 1.23 0 0 0 -1.06-.46 1.51 1.51 0 0 0 -1.07.46 2.12 2.12 0 0 0 -.61 1.28zm5.32 3.11q.92-.9 1.67-1.65t1.27-1.4a6.67 6.67 0 0 0 .81-1.2 2.38 2.38 0 0 0 .28-1.06 1.61 1.61 0 0 0 -.38-1.13 1.41 1.41 0 0 0 -1.11-.41 1.63 1.63 0 0 0 -.94.29 4.46 4.46 0 0 0 -.79.7l-.9-.9a5.15 5.15 0 0 1 1.27-1 3.61 3.61 0 0 1 2.7-.17 2.51 2.51 0 0 1 .88.55 2.49 2.49 0 0 1 .57.86 3 3 0 0 1 .21 1.14 3 3 0 0 1 -.26 1.2 6.64 6.64 0 0 1 -.74 1.21 14.56 14.56 0 0 1 -1 1.28q-.59.66-1.25 1.36l.77-.05q.41 0 .73 0h2.18v1.32h-6zm10.18 1.11a2.54 2.54 0 0 1 -2.21-1.2 6.16 6.16 0 0 1 -.81-3.46 6 6 0 0 1 .81-3.42 2.69 2.69 0 0 1 4.42 0 6 6 0 0 1 .81 3.42 6.16 6.16 0 0 1 -.81 3.46 2.54 2.54 0 0 1 -2.21 1.2zm0-1.26a1.08 1.08 0 0 0 .59-.18 1.38 1.38 0 0 0 .47-.58 4 4 0 0 0 .3-1.04 9.54 9.54 0 0 0 .11-1.6 9.3 9.3 0 0 0 -.11-1.58 3.81 3.81 0 0 0 -.31-1 1.28 1.28 0 0 0 -.47-.55 1.18 1.18 0 0 0 -1.19 0 1.28 1.28 0 0 0 -.47.55 3.81 3.81 0 0 0 -.31 1 9.3 9.3 0 0 0 -.11 1.58 9.54 9.54 0 0 0 .11 1.6 4 4 0 0 0 .31 1.05 1.38 1.38 0 0 0 .47.58 1.08 1.08 0 0 0 .61.17zm6.2-2.44a1.92 1.92 0 0 1 -1.57-.79 3.37 3.37 0 0 1 -.61-2.15 3.31 3.31 0 0 1 .61-2.1 2 2 0 0 1 3.15 0 3.31 3.31 0 0 1 .58 2.13 3.37 3.37 0 0 1 -.58 2.12 1.92 1.92 0 0 1 -1.58.8zm0-.94a.85.85 0 0 0 .74-.47 3 3 0 0 0 .29-1.5 2.91 2.91 0 0 0 -.29-1.49.82.82 0 0 0 -1.47 0 2.91 2.91 0 0 0 -.29 1.49 3 3 0 0 0 .29 1.5.85.85 0 0 0 .73.48zm.28 4.63 5-9.49h1l-5 9.49zm6.29 0a1.92 1.92 0 0 1 -1.58-.76 3.37 3.37 0 0 1 -.61-2.15 3.31 3.31 0 0 1 .61-2.14 2 2 0 0 1 3.15 0 3.31 3.31 0 0 1 .61 2.14 3.37 3.37 0 0 1 -.59 2.16 1.92 1.92 0 0 1 -1.59.76zm0-.94a.85.85 0 0 0 .74-.47 3 3 0 0 0 .29-1.5 2.91 2.91 0 0 0 -.29-1.49.82.82 0 0 0 -1.47 0 2.91 2.91 0 0 0 -.29 1.49 3 3 0 0 0 .29 1.5.85.85 0 0 0 .73.48z" fill="#fe9603"/><g fill="none" stroke="#fe9603" stroke-linecap="round" stroke-linejoin="round"><path d="m.5 36.2q28.82-2.34 37.07-19.09"/><path d="m.51 36.2 2.72 2"/><path d="m.51 36.19 2.72-2.31"/></g></svg>