<svg viewBox="0 0 60 60" xmlns="http://www.w3.org/2000/svg"><path d="m0 0h60v60h-60z" fill="none"/><path d="m53.47 26.83v.53a3.41 3.41 0 0 1 -2.61 3.25 5.53 5.53 0 0 0 -3.43 8.29 3.44 3.44 0 0 1 -.43 4.15l-.74.74a3.42 3.42 0 0 1 -4.14.46 5.55 5.55 0 0 0 -8.3 3.43 3.41 3.41 0 0 1 -3.25 2.61h-1.1a3.41 3.41 0 0 1 -3.25-2.61 5.55 5.55 0 0 0 -8.3-3.43 3.42 3.42 0 0 1 -4.14-.46l-.78-.74a3.44 3.44 0 0 1 -.46-4.15 5.53 5.53 0 0 0 -3.43-8.29 3.41 3.41 0 0 1 -2.61-3.25c0-.18 0-.35 0-.53s0-.35 0-.53a3.41 3.41 0 0 1 2.61-3.25 5.53 5.53 0 0 0 3.43-8.29 3.43 3.43 0 0 1 .46-4.15l.74-.74a3.42 3.42 0 0 1 4.14-.46 5.53 5.53 0 0 0 8.34-3.41 3.41 3.41 0 0 1 3.25-2.61h1.06a3.41 3.41 0 0 1 3.25 2.61 5.53 5.53 0 0 0 8.3 3.43 3.42 3.42 0 0 1 4.14.46l.74.74a3.43 3.43 0 0 1 .46 4.15 5.53 5.53 0 0 0 3.43 8.29 3.41 3.41 0 0 1 2.61 3.25c.01.16.01.33.01.51z" fill="#ffefb0"/><path d="m45.21 26.83c0-8.72-7.34-14.63-16.18-14.08-7.6.47-13.77 5.57-14.21 13.17a15.16 15.16 0 0 0 5 12.19 14.61 14.61 0 0 1 4.71 10.89h10.94a15 15 0 0 1 4.86-11 15.17 15.17 0 0 0 4.88-11.17z" fill="#ffc670"/><path d="m16.5 29.61a15 15 0 0 1 27.72-8c-2.28-5.74-8.22-9.29-15.22-8.86-7.6.47-13.77 5.57-14.21 13.17a15.1 15.1 0 0 0 3.21 10.23 14.93 14.93 0 0 1 -1.5-6.54z" fill="#ffe88a"/><path d="m30 40.52a17.38 17.38 0 0 1 -13-5.88 15.35 15.35 0 0 0 2.84 3.47 14.61 14.61 0 0 1 4.69 10.89h10.94a15 15 0 0 1 4.86-11 15.29 15.29 0 0 0 2.72-3.38 17.35 17.35 0 0 1 -13.05 5.9z" fill="#ff9a42"/><path d="m35 47.58a5.39 5.39 0 0 1 .5 2.27 5.47 5.47 0 1 1 -10.94 0 5.39 5.39 0 0 1 .5-2.27z" fill="#edf4ff"/><path d="m30 53.17a5.46 5.46 0 0 1 -5.36-4.38 5.37 5.37 0 0 0 -.11 1.06 5.47 5.47 0 1 0 10.94 0 5.37 5.37 0 0 0 -.11-1.06 5.46 5.46 0 0 1 -5.36 4.38z" fill="#d8e3f0"/><rect fill="#d8e3f0" height="4.15" rx="1.92" transform="matrix(-1 0 0 -1 60 93.78)" width="19.35" x="20.32" y="44.82"/><path d="m34.47 28.49h2.63a0 0 0 0 1 0 0v2.63a2.26 2.26 0 0 1 -2.26 2.26h-.36a2.26 2.26 0 0 1 -2.26-2.26v-.36a2.26 2.26 0 0 1 2.25-2.27z" fill="#ffdead" transform="matrix(-1 0 0 -1 69.29 61.87)"/><path d="m25.17 28.49h.36a2.26 2.26 0 0 1 2.26 2.26v2.63a0 0 0 0 1 0 0h-2.62a2.26 2.26 0 0 1 -2.26-2.26v-.36a2.26 2.26 0 0 1 2.26-2.27z" fill="#ffdead"/><g fill="#3d3d63"><path d="m46.21 27.83a16.3 16.3 0 0 0 -5.11-11.83 16.2 16.2 0 1 0 -22 23.83 13.23 13.23 0 0 1 3.39 5h-.29a2.92 2.92 0 0 0 -2.92 2.92v.25a2.92 2.92 0 0 0 2.96 3h1.34a6.47 6.47 0 0 0 12.84 0h1.34a2.92 2.92 0 0 0 2.92-3v-.3a2.92 2.92 0 0 0 -2.92-2.92h-.25a14 14 0 0 1 3.5-5.1 16.27 16.27 0 0 0 5.2-11.85zm-16.21 26.81a4.47 4.47 0 0 1 -4.39-3.64h8.78a4.47 4.47 0 0 1 -4.39 3.64zm7.76-7.82a.92.92 0 0 1 .92.92v.26a.92.92 0 0 1 -.92.92h-15.52a.92.92 0 0 1 -.92-.92v-.3a.92.92 0 0 1 .92-.92zm-11-13.44h-1.59a1.27 1.27 0 0 1 -1.26-1.26v-.37a1.27 1.27 0 0 1 1.26-1.26h.37a1.27 1.27 0 0 1 1.26 1.26zm2 11.44v-9.44h2.4v9.44zm6.57 0h-2.13v-9.44h1.63a3.26 3.26 0 0 0 3.26-3.26v-.37a3.26 3.26 0 0 0 -3.26-3.26h-.37a3.27 3.27 0 0 0 -3.26 3.26v1.63h-2.4v-1.63a3.27 3.27 0 0 0 -3.26-3.26h-.37a3.26 3.26 0 0 0 -3.26 3.26v.37a3.26 3.26 0 0 0 3.26 3.26h1.63v9.44h-2.14a15.27 15.27 0 0 0 -4.18-6.45 14.15 14.15 0 0 1 -4.66-11.37 14.37 14.37 0 0 1 13.27-13.35 14.22 14.22 0 0 1 15.12 14.18 14.27 14.27 0 0 1 -4.56 10.42 16.17 16.17 0 0 0 -4.28 6.57zm-2.13-11.44v-1.63a1.27 1.27 0 0 1 1.26-1.26h.37a1.27 1.27 0 0 1 1.26 1.26v.37a1.27 1.27 0 0 1 -1.26 1.26z"/><path d="m21.51 19.6a12.1 12.1 0 0 0 -2.78 4.12 1 1 0 0 0 .54 1.3 1.08 1.08 0 0 0 .38.08 1 1 0 0 0 .93-.63 10.11 10.11 0 0 1 2.32-3.47 1 1 0 0 0 -1.39-1.44z"/><path d="m26.06 16.81a11.26 11.26 0 0 0 -1.39.57 1 1 0 0 0 .44 1.9 1 1 0 0 0 .44-.1 9.12 9.12 0 0 1 1.16-.48 1 1 0 0 0 .62-1.27 1 1 0 0 0 -1.27-.62z"/><path d="m30 8.05a1 1 0 0 0 1-1v-2.69a1 1 0 1 0 -2 0v2.69a1 1 0 0 0 1 1z"/><path d="m14.6 13.85a1 1 0 0 0 1.4-1.42l-1.91-1.9a1 1 0 0 0 -1.41 1.41z"/><path d="m9.22 26.83h-2.69a1 1 0 0 0 0 2h2.69a1 1 0 0 0 0-2z"/><path d="m14.6 41.81-1.9 1.91a1 1 0 0 0 1.41 1.41l1.89-1.9a1 1 0 1 0 -1.42-1.42z"/><path d="m45.4 41.81a1 1 0 1 0 -1.4 1.42l1.91 1.9a1 1 0 0 0 1.41-1.41z"/><path d="m53.47 26.83h-2.69a1 1 0 0 0 0 2h2.69a1 1 0 0 0 0-2z"/><path d="m45.89 10.53-1.89 1.9a1 1 0 1 0 1.42 1.42l1.9-1.91a1 1 0 0 0 -1.41-1.41z"/></g></svg>