<svg viewBox="0 0 60 60" xmlns="http://www.w3.org/2000/svg"><path d="m0 0h60v60h-60z" fill="none"/><path d="m0 0h60v60h-60z" fill="none"/><circle cx="30" cy="30" fill="#ffc670" r="24"/><path d="m30 6a24 24 0 0 0 -21.42 13.18 23.47 23.47 0 1 1 32.24 32.24 24 24 0 0 0 -10.82-45.42z" fill="#ffe3ba"/><path d="m42.05 46.19a28.2 28.2 0 0 1 -27.52-34.53 24 24 0 1 0 33.81 33.81 28.34 28.34 0 0 1 -6.29.72z" fill="#ffa742"/><circle cx="30" cy="30" fill="#c7ecff" r="18.67"/><path d="m38.29 19c-1.12 2.32-3.85 1.32-5.65.91s-4.38-.73-4.46-3.24 3.42-3.33 5.7-2.9 5.54 2.93 4.41 5.23z" fill="#fff" opacity=".5"/><path d="m36.32 47.57a18.67 18.67 0 0 1 -18.39-31.81c-1.62 4.2-.2 11.64 4 18.91s9.94 12.22 14.39 12.9z" fill="#69baf9"/><ellipse cx="30" cy="30" fill="#96ddff" rx="9.33" ry="18.67" transform="matrix(.8660254 -.5 .5 .8660254 -10.98 19.02)"/><g fill="#3d3d63"><path d="m30 5a25 25 0 1 0 25 25 25 25 0 0 0 -25-25zm0 48a23 23 0 1 1 23-23 23 23 0 0 1 -23 23z"/><path d="m45.77 22a1 1 0 0 0 .9.55 1 1 0 0 0 .45-.1 1 1 0 0 0 .44-1.35 20.55 20.55 0 0 0 -1.11-1.91 1 1 0 1 0 -1.67 1.1 16.43 16.43 0 0 1 .99 1.71z"/><path d="m48.68 30.77a1 1 0 0 0 -1.09.9 16 16 0 0 1 -.3 2 1 1 0 0 0 .78 1.18h.2a1 1 0 0 0 1-.8 19.58 19.58 0 0 0 .33-2.19 1 1 0 0 0 -.92-1.09z"/><path d="m42.25 17.27a1 1 0 0 0 .69.28 1 1 0 0 0 .72-.31 1 1 0 0 0 0-1.41 17.6 17.6 0 0 0 -1.66-1.44 1 1 0 1 0 -1.26 1.61c.52.38 1.03.81 1.51 1.27z"/><path d="m47.15 25.75a16.33 16.33 0 0 1 .37 1.95 1 1 0 0 0 1 .87h.13a1 1 0 0 0 .86-1.12 19.74 19.74 0 0 0 -.4-2.17 1 1 0 0 0 -1.21-.73 1 1 0 0 0 -.75 1.2z"/><path d="m35.49 13.21a15.39 15.39 0 0 1 1.85.72 1.06 1.06 0 0 0 .42.09 1 1 0 0 0 .91-.58 1 1 0 0 0 -.5-1.33 17.2 17.2 0 0 0 -2.06-.8 1 1 0 0 0 -1.26.63 1 1 0 0 0 .64 1.27z"/><path d="m46.51 37.72a1 1 0 0 0 -.9.56 17.3 17.3 0 0 1 -2.5 3.55 14.64 14.64 0 0 0 .2-3.76 21.62 21.62 0 0 0 -.51-3.53l3-1.71a1 1 0 1 0 -1-1.74l-2.49 1.44a35 35 0 0 0 -2.85-6.82l4.24-2.45a1 1 0 0 0 -1-1.73l-4.27 2.47a35.26 35.26 0 0 0 -4.43-5.9l2.47-1.43a1 1 0 0 0 -1-1.73l-3 1.7a24.18 24.18 0 0 0 -2.8-2.21 15.29 15.29 0 0 0 -3.39-1.69 17.52 17.52 0 0 1 3.72-.41h.66a1 1 0 0 0 1-1 1 1 0 0 0 -1-1h-.73a19.67 19.67 0 1 0 17.46 28.86.94.94 0 0 0 .12-.47 1 1 0 0 0 -1-1zm-6-4.16-5.51 3.16-3.66-6.35 6.33-3.66a33.35 33.35 0 0 1 2.84 6.85zm-10.88-2.19 3.67 6.35-5.47 3.15a33.77 33.77 0 0 1 -4.53-5.87zm-7.33 1.92a33.54 33.54 0 0 1 -2.8-6.85l5.5-3.16 3.66 6.35zm14.4-8.29-6.33 3.65-3.67-6.37 5.47-3.16a33.33 33.33 0 0 1 4.53 5.88zm-13.43-10.82a10 10 0 0 1 5.29 1.92 21 21 0 0 1 2.09 1.59l-4.95 2.86-3.6-6.23a4.93 4.93 0 0 1 1.17-.14zm-2.9 1.15 3.63 6.22-5 2.85c-.73-4.01-.32-7.4 1.37-9.07zm-3.49 2.88a18.56 18.56 0 0 0 .3 7.26l-4.75 2.74a17.52 17.52 0 0 1 4.45-10zm-4.52 12.35 5.34-3.08a35.74 35.74 0 0 0 2.87 6.81l-6.33 3.65a17.6 17.6 0 0 1 -1.88-7.38zm2.88 9.12 6.33-3.68a35.12 35.12 0 0 0 4.43 5.91l-5.3 3.09a17.85 17.85 0 0 1 -5.46-5.32zm14.76 8a17.51 17.51 0 0 1 -7.23-1.57l4.75-2.73a18.45 18.45 0 0 0 6.17 3.9 17.38 17.38 0 0 1 -3.69.39zm-.63-5.37 4.93-2.85 3.59 6.22c-2.3.61-5.43-.68-8.52-3.38zm10.25 2.37-3.62-6.23 5-2.86a20.39 20.39 0 0 1 .34 2.6c.15 2.92-.46 5.2-1.72 6.48z"/></g></svg>