<svg viewBox="0 0 60 60" xmlns="http://www.w3.org/2000/svg"><path d="m0 0h60v60h-60z" fill="none"/><circle cx="38.18" cy="28.59" fill="#ffc670" r="4.47"/><path d="m37.06 33.06h2.24a6.7 6.7 0 0 1 6.7 6.7 0 0 0 0 1 0 0h-15.64a0 0 0 0 1 0 0 6.7 6.7 0 0 1 6.7-6.7z" fill="#69baf9"/><circle cx="21.82" cy="28.59" fill="#ffc670" r="4.47"/><path d="m20.7 33.06h2.23a6.7 6.7 0 0 1 6.7 6.7 0 0 0 0 1 0 0h-15.63a0 0 0 0 1 0 0 6.7 6.7 0 0 1 6.7-6.7z" fill="#69baf9"/><path d="m48 43.64v4.12h-36v-4a149.72 149.72 0 0 0 17.64 1 148.24 148.24 0 0 0 18.36-1.12z" fill="#f6716f"/><path d="m55.33 42.43h-14v1.86c-3.77.29-7.67.46-11.69.46-3.76 0-7.42-.15-11-.4v-1.92h-14l4.66 4.66-4.63 4.67h14v-4h22.66v4h14l-4.66-4.67z" fill="#f0504d"/><path d="m48 38.43v5.21a148.24 148.24 0 0 1 -18.36 1.11 149.72 149.72 0 0 1 -17.64-1v-5.3z" fill="#f6716f"/><circle cx="30" cy="25.28" fill="#ffdead" r="5.95"/><path d="m30 28.34a6.41 6.41 0 0 1 -5.89-3.85 5.16 5.16 0 0 0 -.06.79 5.95 5.95 0 1 0 11.9 0 5.16 5.16 0 0 0 -.06-.79 6.41 6.41 0 0 1 -5.89 3.85z" fill="#ffc670"/><path d="m28.58 31.23h2.84a8.53 8.53 0 0 1 8.58 8.53 0 0 0 0 1 0 0h-20a0 0 0 0 1 0 0 8.53 8.53 0 0 1 8.58-8.53z" fill="#96ddff"/><path d="m30 38.43 5.18-6.32a8.49 8.49 0 0 0 -3.76-.88h-2.84a8.49 8.49 0 0 0 -3.86.93z" fill="#edf4ff"/><g fill="#f0504d"><path d="m29.64 7.24a1 1 0 0 0 -1 1v2a1 1 0 1 0 2 0v-2a1 1 0 0 0 -1-1z"/><path d="m20.63 9.66a1 1 0 0 0 -.37 1.34l1 1.73a1 1 0 1 0 1.73-1l-.99-1.73a1 1 0 0 0 -1.37-.34z"/><path d="m14 16.26a1 1 0 0 0 .37 1.36l1.73 1a1 1 0 0 0 1.37-.36 1 1 0 0 0 -.37-1.37l-1.73-1a1 1 0 0 0 -1.37.37z"/><path d="m38.66 9.66a1 1 0 0 1 .34 1.34l-1 1.73a1 1 0 1 1 -1.73-1l1-1.73a1 1 0 0 1 1.39-.34z"/><path d="m45.27 16.26a1 1 0 0 1 -.37 1.36l-1.73 1a1 1 0 1 1 -1-1.73l1.73-1a1 1 0 0 1 1.37.37z"/></g><path d="m48 38.43v5.21a148.24 148.24 0 0 1 -18.36 1.11 149.72 149.72 0 0 1 -17.64-1v-5.3z" fill="#f6716f"/><g fill="#3d3d63"><path d="m52.08 47.09 4-4a1 1 0 0 0 -.71-1.7h-6.37v-3a1 1 0 0 0 -1-1h-1.37a7.75 7.75 0 0 0 -4.63-4.86 5.46 5.46 0 0 0 -5.28-9.2 6.95 6.95 0 0 0 -13.34 0 5.48 5.48 0 0 0 -7 5.26 5.4 5.4 0 0 0 1.7 3.94 7.75 7.75 0 0 0 -4.68 4.9h-1.4a1 1 0 0 0 -1 1v3h-6.33a1 1 0 0 0 -.67 1.7l4 4-4 4a1 1 0 0 0 .71 1.71h14a1 1 0 0 0 1-1v-3h20.62v3a1 1 0 0 0 1 1h14a1 1 0 0 0 .67-1.79zm-7.6-9.66h-3.83a9.55 9.55 0 0 0 -1.58-3.38h.22a5.69 5.69 0 0 1 5.19 3.38zm-7.48-12.08a3.4 3.4 0 0 1 1.23-.23 3.47 3.47 0 1 1 -3.23 4.94 7 7 0 0 0 2-4.71zm-1.52 8a7.46 7.46 0 0 1 3.15 4.06h-6.52zm-5.48 3.51-3.63-4.3a7.79 7.79 0 0 1 2.22-.33h2.84a7.39 7.39 0 0 1 2.12.3zm0-16.53a5 5 0 1 1 -4.95 5 5 5 0 0 1 4.95-5zm-2.15 17.1h-6.43a7.45 7.45 0 0 1 3.06-4zm-6-12.31a3.4 3.4 0 0 1 1.23.23 7 7 0 0 0 1.92 4.71 3.47 3.47 0 1 1 -3.15-4.94zm-1.11 8.94h.22a9.42 9.42 0 0 0 -1.58 3.37h-3.86a5.69 5.69 0 0 1 5.19-3.37zm-13.66 16.7 3-3a1 1 0 0 0 0-1.41l-3-3h3.92v4.33a1 1 0 0 0 .49.84l3.57 2.16zm10.59-.76-2.06-1.23h2.06zm-4.67-3.24v-7.33h34v7.33zm29.33 3.24v-1.24h2.06zm2.61.77 3.57-2.16a1 1 0 0 0 .49-.84v-4.34h3.92l-3 3a1 1 0 0 0 0 1.41l3 3z"/><path d="m39.33 42.09h-18.66a1 1 0 0 0 0 2h18.66a1 1 0 0 0 0-2z"/><path d="m29.64 11.24a1 1 0 0 0 1-1v-2a1 1 0 0 0 -2 0v2a1 1 0 0 0 1 1z"/><path d="m21.26 12.75a1 1 0 1 0 1.73-1l-.99-1.75a1 1 0 0 0 -1.73 1z"/><path d="m14.39 17.62 1.73 1a1 1 0 0 0 1.37-.36 1 1 0 0 0 -.37-1.37l-1.73-1a1 1 0 0 0 -1.37.37 1 1 0 0 0 .37 1.36z"/><path d="m36.66 13.12a1 1 0 0 0 1.34-.37l1-1.75a1 1 0 0 0 -1.73-1l-1 1.73a1 1 0 0 0 .39 1.39z"/><path d="m43.17 18.62 1.73-1a1 1 0 0 0 .37-1.36 1 1 0 0 0 -1.37-.37l-1.73 1a1 1 0 1 0 1 1.73z"/></g></svg>