<svg viewBox="0 0 60 60" xmlns="http://www.w3.org/2000/svg"><path d="m0 0h60v60h-60z" fill="none"/><path d="m40.13 44.34h-.81a5.9 5.9 0 0 1 -5.89-5.9v-2.62h-6.61v2.62a5.89 5.89 0 0 1 -5.89 5.9h-1.06a8.24 8.24 0 0 0 -8.25 8.24v1.75h36.76v-1.75a8.24 8.24 0 0 0 -8.25-8.24z" fill="#fcfeff"/><path d="m35.41 54.33-1.41-4.77a1.55 1.55 0 0 0 1.53-1.28l.83-4.73a6 6 0 0 1 -2.64-3.2h-7.22a5.93 5.93 0 0 1 -2.87 3.33l.81 4.6a1.55 1.55 0 0 0 1.56 1.28l-1.43 4.77z" fill="#d8e3f0"/><path d="m48.38 51a13.64 13.64 0 0 1 -5.48 1.15h-25.8a13.64 13.64 0 0 1 -5.48-1.15v3.29h36.76z" fill="#d8e3f0"/><path d="m40.13 44.34h-.81a5.9 5.9 0 0 1 -5.89-5.9v-2.62h-6.61v2.62a5.89 5.89 0 0 1 -5.89 5.9h-1.06a8.24 8.24 0 0 0 -8.25 8.24v1.75h36.76v-1.75a8.24 8.24 0 0 0 -8.25-8.24z" fill="none"/><path d="m26.72 45.83h6.56l-.69 3.92h-5.18z" fill="#69baf9"/><path d="m36.6 38.98-6.6 6.08 4.46 4.46 4.01-7.32z" fill="#fcfeff"/><path d="m23.4 38.98 6.6 6.08-4.46 4.46-4.01-7.32z" fill="#fcfeff"/><path d="m32.59 54.33-1.37-4.58h-2.44l-1.37 4.58z" fill="#69baf9"/><path d="m41 19.16v11.2a10.89 10.89 0 0 1 -11 10.78 10.89 10.89 0 0 1 -11-10.78v-11.2" fill="#ffdead"/><path d="m37.71 19.16v11.2a10.82 10.82 0 0 1 -9.35 10.64 11.11 11.11 0 0 0 1.64.14 10.89 10.89 0 0 0 11-10.78v-11.2z" fill="#ffc670"/><rect fill="#f6716f" height="4.28" rx="2.14" width="31.31" x="14.35" y="15.56"/><path d="m43.51 15.56h-4.23a2.15 2.15 0 0 1 0 4.29h4.23a2.15 2.15 0 0 0 0-4.29z" fill="#f0504d"/><path d="m16.49 15.56h4.23a2.15 2.15 0 0 0 0 4.29h-4.23a2.15 2.15 0 0 1 0-4.29z" fill="#f6a2a2"/><path d="m35.1 5.87-3.24 1.13a5.65 5.65 0 0 1 -3.72 0l-3.24-1.13a3.69 3.69 0 0 0 -4.9 3.49v6.2h20v-6.2a3.69 3.69 0 0 0 -4.9-3.49z" fill="#f6716f"/><path d="m35.1 5.87-.63.21a3.7 3.7 0 0 1 2 3.28v6.2h3.53v-6.2a3.69 3.69 0 0 0 -4.9-3.49z" fill="#f0504d"/><path d="m24.9 5.87.63.21a3.7 3.7 0 0 0 -2 3.28v6.2h-3.53v-6.2a3.69 3.69 0 0 1 4.9-3.49z" fill="#f6a2a2"/><path d="m20.01 11.94h19.98v3.62h-19.98z" fill="#fcfeff"/><path d="m19 29.8v-6.86h-2.17a1.87 1.87 0 0 0 -1.94 1.79v1.27a4 4 0 0 0 4.11 3.8z" fill="#ffc670"/><path d="m41 29.8v-6.86h2.18a1.87 1.87 0 0 1 1.94 1.79v1.27a4 4 0 0 1 -4.12 3.8z" fill="#ffc670"/><g fill="#3d3d63"><path d="m52.06 53.33h-2.68v-.75a9.25 9.25 0 0 0 -9.25-9.24h-.81-.32l.35-.63a1 1 0 0 0 0-1l-1.44-2.5a11.69 11.69 0 0 0 4.09-8.5 4.9 4.9 0 0 0 4.11-4.71v-1.27a2.87 2.87 0 0 0 -2.94-2.79h-1.17v-1.09h1.52a3.15 3.15 0 0 0 0-6.29h-2.52v-5.2a4.69 4.69 0 0 0 -6.21-4.44l-3.25 1.08a4.78 4.78 0 0 1 -3.08 0l-3.24-1.08a4.69 4.69 0 0 0 -6.22 4.44v5.2h-2.51a3.15 3.15 0 0 0 0 6.29h1.51v1.09h-1.17a2.87 2.87 0 0 0 -2.94 2.79v1.27a4.9 4.9 0 0 0 4.11 4.71 11.69 11.69 0 0 0 4.08 8.49l-1.44 2.5a1 1 0 0 0 0 1l.36.65h-1.13a9.25 9.25 0 0 0 -9.25 9.24v.75h-2.68a1 1 0 1 0 0 2h44.12a1 1 0 0 0 0-2zm-34.06-24.69a2.85 2.85 0 0 1 -2.11-2.64v-1.27a.87.87 0 0 1 .94-.79h1.17zm19.32 13.57-3.09 5.66-2.79-2.78 4.92-4.53zm5.85-18.27a.87.87 0 0 1 .94.79v1.27a2.85 2.85 0 0 1 -2.11 2.64v-4.7zm-22.17-14.58a2.65 2.65 0 0 1 1.13-2.19 2.69 2.69 0 0 1 2.44-.36l3.23 1.11a6.84 6.84 0 0 0 4.38 0l3.23-1.11a2.69 2.69 0 0 1 2.44.36 2.65 2.65 0 0 1 1.15 2.19v1.58h-18zm0 3.58h18v1.62h-18zm-4.52 5.91a1.15 1.15 0 0 1 0-2.29h27a1.15 1.15 0 0 1 0 2.29zm3.52 11.51v-9.51h20v9.51a10 10 0 0 1 -20 0zm10 11.78a12.75 12.75 0 0 0 1.87-.14l-1.87 1.7-1.87-1.7a12.75 12.75 0 0 0 1.87.14zm-1.44 3-2.79 2.78-3.09-5.66 1-1.65zm-1.89 8.24h-14.05v-.75a7.25 7.25 0 0 1 7.25-7.24h1.06a7 7 0 0 0 1.12-.1l2.61 4.71a1 1 0 0 0 .73.52h.15a1 1 0 0 0 .7-.3l.22-.21a1 1 0 0 0 .95.73zm2.09 0 .77-2.58h.94l.77 2.58zm3-4.58h-3.5l-.08-.45 1.82-1.87 1.83 1.82zm15.63 4.58h-14.06l-.77-2.58a1 1 0 0 0 .95-.73l.22.21a1 1 0 0 0 .7.3h.15a1 1 0 0 0 .73-.52l2.69-4.87a6.71 6.71 0 0 0 1.34.15h.81a7.25 7.25 0 0 1 7.25 7.24z"/><path d="m26.08 32.5a1 1 0 0 0 -.52 1.32 4.84 4.84 0 0 0 8.88 0 1 1 0 0 0 -1.84-.82 2.83 2.83 0 0 1 -5.2 0 1 1 0 0 0 -1.32-.5z"/><path d="m25.56 26.6a1 1 0 0 0 1-1v-1.15a1 1 0 0 0 -2 0v1.15a1 1 0 0 0 1 1z"/><path d="m34.44 26.6a1 1 0 0 0 1-1v-1.15a1 1 0 0 0 -2 0v1.15a1 1 0 0 0 1 1z"/></g></svg>