<svg viewBox="0 0 60 60" xmlns="http://www.w3.org/2000/svg"><path d="m0 0h60v60h-60z" fill="none"/><path d="m12 50.44h33.33" fill="#fff"/><path d="m8 12.74h41.33a2 2 0 0 1 2 2v25.34a1.33 1.33 0 0 1 -1.33 1.33h-42.67a1.33 1.33 0 0 1 -1.33-1.33v-25.34a2 2 0 0 1 2-2z" fill="#fcfeff"/><path d="m51.33 14.74v25.33a1.33 1.33 0 0 1 -1.33 1.34h-22.2l10.44-28.67h11.09a2 2 0 0 1 2 2z" fill="#edf4ff"/><path d="m42 50.44h-26.67a3.34 3.34 0 0 1 3.34-3.33h20a3.33 3.33 0 0 1 3.33 3.33z" fill="#fff"/><path d="m35.07 41.41h-12.8l-1.6 5.7h16z" fill="#c3cfde"/><path d="m51.33 14.74v4h-45.33v-4a2 2 0 0 1 2-2h41.33a2 2 0 0 1 2 2z" fill="#96ddff"/><path d="m49.33 12.74h-11.09l-2.18 6h15.27v-4a2 2 0 0 0 -2-2z" fill="#69baf9"/><path d="m42 50.44h-26.67a3.34 3.34 0 0 1 3.34-3.33h20a3.33 3.33 0 0 1 3.33 3.33z" fill="#edf4ff"/><path d="m45.83 52.92a9.29 9.29 0 0 0 1.5-.12 1.28 1.28 0 0 1 1.33.62 1.29 1.29 0 0 0 1.77.47l2.11-1.22a1.3 1.3 0 0 0 .46-1.76 1.3 1.3 0 0 1 .12-1.47 9.39 9.39 0 0 0 1.5-2.61 1.29 1.29 0 0 1 1.24-.83 1.3 1.3 0 0 0 1.3-1.3v-2.44a1.3 1.3 0 0 0 -1.3-1.3 1.29 1.29 0 0 1 -1.21-.84 9.53 9.53 0 0 0 -1.5-2.61 1.28 1.28 0 0 1 -.15-1.46 1.31 1.31 0 0 0 -.48-1.78l-2.11-1.22a1.29 1.29 0 0 0 -1.77.48 1.29 1.29 0 0 1 -1.33.63 8.72 8.72 0 0 0 -3 0 1.29 1.29 0 0 1 -1.31-.63 1.3 1.3 0 0 0 -1.77-.48l-2.11 1.22a1.31 1.31 0 0 0 -.48 1.78 1.28 1.28 0 0 1 -.12 1.46 9.53 9.53 0 0 0 -1.52 2.61 1.29 1.29 0 0 1 -1.2.88 1.3 1.3 0 0 0 -1.3 1.3v2.4a1.3 1.3 0 0 0 1.3 1.3 1.29 1.29 0 0 1 1.21.83 9.39 9.39 0 0 0 1.5 2.61 1.3 1.3 0 0 1 .12 1.47 1.3 1.3 0 0 0 .48 1.77l2.11 1.22a1.29 1.29 0 0 0 1.78-.47 1.28 1.28 0 0 1 1.33-.62 9.29 9.29 0 0 0 1.5.11z" fill="#79deb4"/><path d="m57.16 42.25v2.44a1.3 1.3 0 0 1 -1.3 1.3 1.3 1.3 0 0 0 -1.21.84 9.53 9.53 0 0 1 -1.5 2.61 1.32 1.32 0 0 0 -.29.82 1.23 1.23 0 0 0 .17.64 1.31 1.31 0 0 1 -.48 1.78l-2.11 1.22a1.29 1.29 0 0 1 -1.77-.48 1.29 1.29 0 0 0 -1.33-.63 8.72 8.72 0 0 1 -3 0 1.29 1.29 0 0 0 -1.33.63 1.3 1.3 0 0 1 -1.77.48l-2.11-1.22a1.31 1.31 0 0 1 -.48-1.78 1.22 1.22 0 0 0 .14-.36l14.1-14.13a1.27 1.27 0 0 0 .26 1.1 9.53 9.53 0 0 1 1.5 2.61 1.3 1.3 0 0 0 1.21.84 1.3 1.3 0 0 1 1.3 1.29z" fill="#62cca1"/><circle cx="45.83" cy="43.48" fill="#fcfeff" r="3.54"/><g fill="#3d3d63"><circle cx="9.33" cy="15.74" r="1"/><circle cx="16" cy="15.74" r="1"/><circle cx="12.67" cy="15.74" r="1"/><path d="m20 30.25 3-3a1 1 0 1 0 -1.42-1.42l-3.72 3.73a1 1 0 0 0 0 1.41l3.72 3.73a1 1 0 0 0 1.42 0 1 1 0 0 0 0-1.41z"/><path d="m34.32 34.68a1 1 0 0 0 1.41 0l3.73-3.68a1 1 0 0 0 0-1.41l-3.73-3.73a1 1 0 0 0 -1.41 1.42l3 3-3 3a1 1 0 0 0 0 1.4z"/><path d="m31 26.15a1 1 0 0 0 -1.37.37l-3.69 6.48a1 1 0 1 0 1.73 1l3.73-6.45a1 1 0 0 0 -.4-1.4z"/><path d="m55.86 40a.29.29 0 0 1 -.27-.19 10.43 10.43 0 0 0 -1.67-2.89.29.29 0 0 1 0-.33 2.3 2.3 0 0 0 -.84-3.14l-.75-.45v-18.26a3 3 0 0 0 -3-3h-41.33a3 3 0 0 0 -3 3v25.34a2.34 2.34 0 0 0 2.33 2.33h13.67l-1 3.7h-1.33a4.33 4.33 0 0 0 -4.21 3.33h-2.46a1 1 0 0 0 0 2h25.47a2.12 2.12 0 0 0 .07.71 2.25 2.25 0 0 0 1.07 1.4l2.11 1.22a2.3 2.3 0 0 0 3.14-.85.31.31 0 0 1 .31-.14 9.74 9.74 0 0 0 3.32 0 .3.3 0 0 1 .31.15 2.3 2.3 0 0 0 2 1.14 2.27 2.27 0 0 0 1.15-.3l2.11-1.22a2.29 2.29 0 0 0 1.07-1.4 2.26 2.26 0 0 0 -.23-1.74.3.3 0 0 1 0-.34 10.52 10.52 0 0 0 1.67-2.88.28.28 0 0 1 .27-.19 2.31 2.31 0 0 0 2.3-2.3v-2.44a2.3 2.3 0 0 0 -2.28-2.26zm-48.86-25.26a1 1 0 0 1 1-1h41.33a1 1 0 0 1 1 1v3h-43.33zm.33 25.67a.33.33 0 0 1 -.33-.33v-20.34h43.33v12.26a2.29 2.29 0 0 0 -2.53 1 .29.29 0 0 1 -.3.13 10.27 10.27 0 0 0 -3.32 0 .28.28 0 0 1 -.3-.13 2.29 2.29 0 0 0 -3.14-.84l-2.11 1.22a2.24 2.24 0 0 0 -1.07 1.39 2.32 2.32 0 0 0 .22 1.75.27.27 0 0 1 0 .33 10.43 10.43 0 0 0 -1.67 2.89.29.29 0 0 1 -.27.19 2.29 2.29 0 0 0 -1.36.45zm26.67 5.7h-12l1-3.7h10.5v2.29a2.32 2.32 0 0 0 .5 1.41zm-15.32 2h17.8a11 11 0 0 0 .78 1.33h-20.69a2.33 2.33 0 0 1 2.1-1.33zm37.48-3.41a.3.3 0 0 1 -.3.3 2.31 2.31 0 0 0 -2.15 1.48 8.46 8.46 0 0 1 -1.34 2.33 2.31 2.31 0 0 0 -.21 2.6.26.26 0 0 1 0 .22.29.29 0 0 1 -.14.19l-2.08 1.18a.3.3 0 0 1 -.41-.12 2.31 2.31 0 0 0 -2.37-1.11 7.92 7.92 0 0 1 -2.66 0 2.31 2.31 0 0 0 -2.37 1.12.31.31 0 0 1 -.41.11l-2.11-1.22a.29.29 0 0 1 -.14-.19.26.26 0 0 1 0-.22 2.33 2.33 0 0 0 -.21-2.6 8.35 8.35 0 0 1 -1.35-2.33 2.28 2.28 0 0 0 -2.11-1.44.3.3 0 0 1 -.3-.3v-2.44a.29.29 0 0 1 .3-.3 2.3 2.3 0 0 0 2.14-1.48 8.21 8.21 0 0 1 1.35-2.33 2.33 2.33 0 0 0 .21-2.6.28.28 0 0 1 0-.23.26.26 0 0 1 .14-.18l2.11-1.22a.28.28 0 0 1 .15 0 .3.3 0 0 1 .25.14 2.32 2.32 0 0 0 2.37 1.12 7.92 7.92 0 0 1 2.66 0 2.33 2.33 0 0 0 2.35-1.18.29.29 0 0 1 .4-.1l2.11 1.22a.26.26 0 0 1 .14.18.28.28 0 0 1 0 .23 2.3 2.3 0 0 0 .21 2.59 8.51 8.51 0 0 1 1.34 2.34 2.32 2.32 0 0 0 2.13 1.54.29.29 0 0 1 .3.3z"/><path d="m45.83 38.94a4.54 4.54 0 1 0 4.54 4.54 4.54 4.54 0 0 0 -4.54-4.54zm0 7.08a2.54 2.54 0 1 1 2.54-2.54 2.54 2.54 0 0 1 -2.54 2.52z"/></g></svg>