<svg viewBox="0 0 60 60" xmlns="http://www.w3.org/2000/svg"><path d="m0 0h60v60h-60z" fill="none"/><path d="m12.67 9.72h31.87a2.8 2.8 0 0 1 2.8 2.8v35a2.8 2.8 0 0 1 -2.8 2.8h-29.08a2.8 2.8 0 0 1 -2.8-2.8v-37.8a0 0 0 0 1 .01 0z" fill="#ffe3ba"/><path d="m15.56 6.33a2.81 2.81 0 0 0 -2.89 2.67v38.63a2.8 2.8 0 0 1 2.89-2.71h3.61v-38.59z" fill="#ffc670"/><path d="m50.11 45.38a2 2 0 0 1 -2.83 0l-5.66-5.66 1.38-1.41 1.41-1.42 5.66 5.66a2 2 0 0 1 .04 2.83z" fill="#f6716f"/><circle cx="33" cy="28.27" fill="#fff6e6" r="10"/><g fill="#3d3d63"><path d="m23.17 17.83h4.25a1 1 0 1 0 0-2h-4.25a1 1 0 0 0 0 2z"/><path d="m38.42 41.33h-2.84a1 1 0 0 0 0 2h2.84a1 1 0 0 0 0-2z"/><path d="m31.05 41.33h-7.88a1 1 0 0 0 0 2h7.88a1 1 0 0 0 0-2z"/><path d="m50.82 41.84-2.49-2.48v-26.85a3.79 3.79 0 0 0 -3.79-3.79h-24.37v-2.39a1 1 0 0 0 -1-1h-3.61a3.81 3.81 0 0 0 -3.89 3.67v38.5a3.79 3.79 0 0 0 3.79 3.79h29.08a3.79 3.79 0 0 0 3.79-3.79v-.61a3 3 0 0 0 2.49-5.09zm-37.15-32.84a1.81 1.81 0 0 1 1.89-1.71h2.61v36.5h-2.61a4 4 0 0 0 -1.89.47zm30.87 40.33h-29.08a1.75 1.75 0 1 1 .1-3.5h3.61a1 1 0 0 0 1-1v-34.11h24.37a1.79 1.79 0 0 1 1.79 1.79v24.85l-1.17-1.17a1 1 0 0 0 -1.42 0l-.7.7-1.59-1.59a11 11 0 1 0 -17.35-13.47h-.93a1 1 0 0 0 -1 1 1 1 0 0 0 .79 1 10.94 10.94 0 0 0 1.62 11.54h-1.41a1 1 0 0 0 0 2h3.61a11 11 0 0 0 13.22-.65l1.59 1.59-.7.71a1 1 0 0 0 0 1.41l5.41 5.42v1.69a1.79 1.79 0 0 1 -1.76 1.79zm-20.54-21.06a9 9 0 1 1 9 9 9 9 0 0 1 -9-9zm25.4 16.4a1 1 0 0 1 -1.41 0l-5-5 1.41-1.41 4.95 4.95a1 1 0 0 1 .05 1.46z"/><path d="m36 32.58a1 1 0 0 0 -1-1h-1v-5.93h1.67v.35a1 1 0 1 0 2 0v-1.3a1 1 0 0 0 -1-1h-7.34a1 1 0 0 0 -1 1v1.3a1 1 0 1 0 2 0v-.3h1.67v5.93h-.95a1 1 0 1 0 0 2h3.95a1 1 0 0 0 1-1.05z"/></g></svg>