<svg viewBox="0 0 60 60" xmlns="http://www.w3.org/2000/svg"><path d="m0 0h60v60h-60z" fill="none"/><path d="m52.58 45.62h-45.16v-26.69a1.36 1.36 0 0 1 1.37-1.36h42.42a1.36 1.36 0 0 1 1.37 1.36z" fill="#d8e3f0"/><path d="m30 40.51a55 55 0 0 1 -22.58-4.79v9.9h45.16v-9.9a55 55 0 0 1 -22.58 4.79z" fill="#c3cfde"/><path d="m11.53 22.36h36.95v23.26h-36.95z" fill="#96ddff"/><path d="m20.69 43a50.58 50.58 0 0 1 -9.16-.83v3.45h36.94v-11.62c-6.92 5.53-16.81 9-27.78 9z" fill="#69baf9"/><path d="m11.53 35.67v2.13l7.81 7.82h5.31l9.23-16.45-3.87-3.87z" fill="#d8e3f0"/><path d="m35.85 37.39.31-7.63 5.56-5.56 2.47 7.24z" fill="#ffc670"/><path d="m21.79 23.32 7.63-.31 5.55-5.55-7.23-2.47z" fill="#ffc670"/><path d="m47.26 10.28a19 19 0 0 0 -17.89 11.25l-1.56 3.47a7.49 7.49 0 0 0 6.35 6.35l3.49-1.56a19 19 0 0 0 11.24-17.87 1.69 1.69 0 0 0 -1.63-1.64z" fill="#f6716f"/><path d="m30.14 24.27a22.29 22.29 0 0 1 18.53-13.12 1.68 1.68 0 0 0 -1.41-.87 19 19 0 0 0 -17.89 11.25l-1.56 3.47a7.51 7.51 0 0 0 .86 2.53z" fill="#f6a2a2"/><path d="m47.75 10.38a36.67 36.67 0 0 1 -15.66 17l-1.23.67a8.59 8.59 0 0 1 -1.41.61 7.47 7.47 0 0 0 4.71 2.68l3.49-1.56a19 19 0 0 0 11.24-17.86 1.67 1.67 0 0 0 -1.14-1.54z" fill="#f0504d"/><circle cx="41.4" cy="17.78" fill="#edf4ff" r="2.81"/><path d="m4 45.62h52a0 0 0 0 1 0 0v1.94a2.17 2.17 0 0 1 -2.17 2.17h-47.66a2.17 2.17 0 0 1 -2.17-2.18v-1.93a0 0 0 0 1 0 0z" fill="#c3cfde"/><path d="m21.79 45.62h16.42a0 0 0 0 1 0 0v2a2.08 2.08 0 0 1 -2.08 2.08h-12.26a2.08 2.08 0 0 1 -2.08-2.08v-2a0 0 0 0 1 0 0z" fill="#d8e3f0"/><path d="m25.78 39a5.34 5.34 0 0 0 -3.58 1.37 3.51 3.51 0 0 0 -3-1.75 3.44 3.44 0 0 0 -1.69.45 3.42 3.42 0 0 0 .49-1.9 3.51 3.51 0 0 0 -1.6-3 5.69 5.69 0 0 0 .1-1 4.94 4.94 0 0 0 -4.93-4.94v17.39h19.43a5.37 5.37 0 0 0 -5.22-6.62z" fill="#edf4ff"/><g fill="#3d3d63"><path d="m41.4 21.59a3.81 3.81 0 1 0 -3.81-3.81 3.82 3.82 0 0 0 3.81 3.81zm0-5.62a1.81 1.81 0 1 1 -1.81 1.81 1.81 1.81 0 0 1 1.81-1.78z"/><path d="m56 44.62h-2.42v-25.69a2.37 2.37 0 0 0 -2.37-2.36h-1.74a19.66 19.66 0 0 0 .42-4.68 2.75 2.75 0 0 0 -2.61-2.61 20 20 0 0 0 -15 6.19l-4.22-1.47a1 1 0 0 0 -1.13.37l-1.55 2.16h-16.59a2.37 2.37 0 0 0 -2.37 2.36v25.73h-2.42a1 1 0 0 0 -1 1v1.93a3.17 3.17 0 0 0 3.17 3.17h47.66a3.17 3.17 0 0 0 3.17-3.17v-1.93a1 1 0 0 0 -1-1zm-4.79-26a.37.37 0 0 1 .37.36v25.64h-2.11v-22.26a1 1 0 0 0 -1-1h-.66a19.86 19.86 0 0 0 1.13-2.79zm-19.06 26c0-.1 0-.19 0-.28a6.35 6.35 0 0 0 -2.73-5.22l3.88-6.92c.24 0 .46.12.7.16a1 1 0 0 0 .55-.08l.5-.22-.22 5.29a1 1 0 0 0 .53.92 1 1 0 0 0 1-.06l8.34-6a1 1 0 0 0 .37-1.14l-1.43-4.19a20.14 20.14 0 0 0 3-3.56h.8v21.3zm-19.62 0v-15.21a3.93 3.93 0 0 1 2.93 3.79 4.45 4.45 0 0 1 -.08.81 1 1 0 0 0 .43 1 2.52 2.52 0 0 1 1.19 2.16 2.48 2.48 0 0 1 -.34 1.23c-.11.08-.22.14-.32.22a1 1 0 0 0 -.16 1.38 1 1 0 0 0 .77.36 1 1 0 0 0 .64-.24c.12-.09.24-.18.37-.26a2.46 2.46 0 0 1 2.92.38 6.3 6.3 0 0 0 -.78 1.15 1 1 0 0 0 .43 1.35 1.07 1.07 0 0 0 .46.11 1 1 0 0 0 .89-.54 4.33 4.33 0 0 1 1-1.27 4.38 4.38 0 0 1 7.3 3.27v.28zm8.27-21.26a.87.87 0 0 0 .11.44 1 1 0 0 0 .88.52l5.29-.21-.22.5a.94.94 0 0 0 -.08.55 5.32 5.32 0 0 0 .16.69l-9.81 5.51a6 6 0 0 0 -4.64-4v-4zm5 14.59a6.41 6.41 0 0 0 -3.39 1 4.51 4.51 0 0 0 -3.45-1.35 2.88 2.88 0 0 0 0-.41 4.5 4.5 0 0 0 -1.53-3.39c0-.09 0-.19 0-.28l10.19-5.73a7.58 7.58 0 0 0 .55.91l-4.43 3.1a1 1 0 0 0 .57 1.82 1 1 0 0 0 .58-.18l4.6-3.22a8.78 8.78 0 0 0 1.89 1.34l-3.75 6.69a6.41 6.41 0 0 0 -1.85-.25zm16.29-9.62.91 2.73-6.06 4.33.17-4.24 1-.43a20.34 20.34 0 0 0 3.96-2.39zm5.16-17a.7.7 0 0 1 .66.67 17.93 17.93 0 0 1 -10.67 16.89l-3.24 1.44a6.58 6.58 0 0 1 -5.18-5.18l1.43-3.21a18 18 0 0 1 16.98-10.66zm-19.13 4.84 2.73.94a20.34 20.34 0 0 0 -2.39 4l-.43.95-4.24.17zm-19.7 2.76a.37.37 0 0 1 .37-.36h15.21l-2 2.79h-10.47a1 1 0 0 0 -1 1v22.26h-2.11zm-3.42 28.62v-.93h15.79v1a3 3 0 0 0 .21 1.1h-14.83a1.17 1.17 0 0 1 -1.17-1.17zm18.87 1.17a1.08 1.08 0 0 1 -1.08-1.08v-1h14.42v1a1.08 1.08 0 0 1 -1.08 1.08zm31.13-1.17a1.17 1.17 0 0 1 -1.17 1.17h-14.83a3 3 0 0 0 .21-1.08v-1h15.79z"/><path d="m28.06 34a1 1 0 0 0 -1.41 0l-1.65 1.53a1 1 0 0 0 -.05 1.41 1 1 0 0 0 .73.32 1 1 0 0 0 .69-.28l1.63-1.59a1 1 0 0 0 .06-1.39z"/></g></svg>