<svg viewBox="0 0 60 60" xmlns="http://www.w3.org/2000/svg"><path d="m0 0h60v60h-60z" fill="none"/><path d="m12.67 50.63h33.33" fill="#fff"/><path d="m35.73 41.6h-12.8l-1.6 5.7h16z" fill="#d8e3f0"/><path d="m50 12.93h-30v24h-13.33v3.33a1.33 1.33 0 0 0 1.33 1.34h33.33v-8.82a1.34 1.34 0 0 1 1.34-1.34h9.33v-16.51a2 2 0 0 0 -2-2zm-5.83 11.17a3.34 3.34 0 1 1 3.33-3.34 3.35 3.35 0 0 1 -3.33 3.34z" fill="#edf4ff"/><path d="m30.16 36.93h11.17v-4.15a1.34 1.34 0 0 1 1.34-1.34h9.33v-16.51a2 2 0 0 0 -.8-1.59h-14.72zm14-19.5a3.34 3.34 0 1 1 -3.34 3.33 3.33 3.33 0 0 1 3.35-3.33z" fill="#d8e3f0"/><path d="m8.67 12.93h11.33a0 0 0 0 1 0 0v24a0 0 0 0 1 0 0h-13.33a0 0 0 0 1 0 0v-22a2 2 0 0 1 2-2z" fill="#d8e3f0"/><path d="m41.33 36.93h-34.66v3.33a1.33 1.33 0 0 0 1.33 1.34h33.33z" fill="#96ddff"/><path d="m41.33 37.01h-8.39l-1.21 4.51v.08h9.6z" fill="#69baf9"/><path d="m42.67 50.63h-26.67a3.33 3.33 0 0 1 3.33-3.33h20a3.34 3.34 0 0 1 3.34 3.33z" fill="#edf4ff"/><rect fill="#edf4ff" height="21.33" rx="1.33" width="13.33" x="41.33" y="31.44"/><path d="m45.73 48.66 4.54-16.92h3.92v16.92z" fill="#d8e3f0"/><path d="m41.33 49h13.34a0 0 0 0 1 0 0v2.4a1.33 1.33 0 0 1 -1.33 1.33h-10.67a1.33 1.33 0 0 1 -1.33-1.33v-2.4a0 0 0 0 1 -.01 0z" fill="#96ddff"/><path d="m47 52.78h6.3a1.34 1.34 0 0 0 1.34-1.34v-2.44h-6.64z" fill="#69baf9"/><circle cx="44.17" cy="20.76" fill="#ffc670" r="3.33"/><g fill="#3d3d63"><path d="m53.33 30.44h-.33v-15.51a3 3 0 0 0 -3-3h-41.33a3 3 0 0 0 -3 3v25.33a2.33 2.33 0 0 0 2.33 2.34h13.61l-1 3.7h-1.28a4.32 4.32 0 0 0 -4.2 3.33h-2.46a1 1 0 0 0 0 2h27.68a2.33 2.33 0 0 0 2.32 2.15h10.66a2.34 2.34 0 0 0 2.34-2.34v-18.66a2.34 2.34 0 0 0 -2.34-2.34zm-32.33-16.51h29a1 1 0 0 1 1 1v15.51h-8.33a2.34 2.34 0 0 0 -2.34 2.34v3.15h-19.33zm19.33 32.49a4.64 4.64 0 0 0 -1-.12h-1.24l-1-3.7h3.28zm-32.66-31.49a1 1 0 0 1 1-1h10.33v22h-11.33zm.33 25.67a.34.34 0 0 1 -.33-.34v-2.33h32.66v2.67zm28 5.7h-13.35l1-3.7h11.35zm-16.68 2h20a2.26 2.26 0 0 1 1 .23v1.1h-23.09a2.33 2.33 0 0 1 2.1-1.33zm34.34 3.14a.34.34 0 0 1 -.34.34h-10.65a.34.34 0 0 1 -.34-.34v-1.44h11.34zm0-3.4h-11.33v-15.26a.34.34 0 0 1 .34-.34h10.66a.34.34 0 0 1 .34.34z"/><path d="m50 33.78h-4a1 1 0 0 0 0 2h4a1 1 0 0 0 0-2z"/><path d="m16.67 17.1h-2.67a1 1 0 0 0 0 2h2.67a1 1 0 0 0 0-2z"/><circle cx="10.33" cy="18.1" r="1"/><path d="m16.67 22.43h-2.67a1 1 0 0 0 0 2h2.67a1 1 0 0 0 0-2z"/><path d="m16.67 25.76h-2.67a1 1 0 0 0 0 2h2.67a1 1 0 0 0 0-2z"/><circle cx="10.33" cy="23.43" r="1"/><path d="m44.17 25.1a4.34 4.34 0 1 0 -4.34-4.34 4.34 4.34 0 0 0 4.34 4.34zm0-6.67a2.34 2.34 0 1 1 -2.34 2.33 2.34 2.34 0 0 1 2.34-2.33z"/><path d="m24.83 22.5h6a1 1 0 0 0 0-2h-6a1 1 0 0 0 0 2z"/><path d="m33.72 23.83h-8.89a1 1 0 0 0 0 2h8.89a1 1 0 0 0 0-2z"/><path d="m36.72 17.1h-11.89a1 1 0 0 0 0 2h11.89a1 1 0 0 0 0-2z"/><path d="m30.33 31.76h-5.5a1 1 0 0 0 0 2h5.5a1 1 0 1 0 0-2z"/><path d="m24.83 30.43h2.34a1 1 0 0 0 0-2h-2.34a1 1 0 0 0 0 2z"/></g></svg>