<svg viewBox="0 0 60 60" xmlns="http://www.w3.org/2000/svg"><path d="m0 0h60v60h-60z" fill="none"/><path d="m45.59 9.47-11.47-1.11a1 1 0 0 0 -.78.26 1 1 0 0 0 -.32.77l.56 14.94a1 1 0 0 0 .64.9l7.21 2.77a1.13 1.13 0 0 0 .36.06.94.94 0 0 0 .37-.07l4.25-1.67a1 1 0 0 0 .63-.83l1.24-12.76a3 3 0 0 0 -2.69-3.26z" fill="#ffc670"/><path d="m32.24 39.46h18.21v5.33h-18.21z" fill="#ffdead" transform="matrix(.70710678 -.70710678 .70710678 .70710678 -17.68 41.57)"/><path d="m46.53 32.27h5.33a0 0 0 0 1 0 0v1.73a2.31 2.31 0 0 1 -2.31 2.31h-.71a2.31 2.31 0 0 1 -2.31-2.31v-1.73a0 0 0 0 1 0 0z" fill="#f6716f" transform="matrix(-.70710678 -.70710678 .70710678 -.70710678 59.75 93.28)"/><path d="m36.79 50.45-5.66 1.88 1.88-5.65h.01z" fill="#ffdead"/><path d="m40.46 15.33h-6a.33.33 0 0 1 -.33-.33v-6a2.33 2.33 0 0 0 -2.34-2.33h-18a3 3 0 0 0 -3 3v40.66a3 3 0 0 0 3 3h9.82a1 1 0 0 0 .94-.68l1.7-5.07 16.25-16.26a1 1 0 0 0 .29-.71v-12.94a2.33 2.33 0 0 0 -2.33-2.34z" fill="#fff6e6"/><path d="m22.32 14.14h-10.52v15.33h10.52a2.33 2.33 0 0 0 2.33-2.33v-10.67a2.33 2.33 0 0 0 -2.33-2.33z" fill="#ffdead"/><path d="m41.31 16.64a1.29 1.29 0 0 0 -.85-.31h-6a1.33 1.33 0 0 1 -1.33-1.33v-6a1.32 1.32 0 0 0 -.39-.94z" fill="#ffdead"/><rect fill="#79deb4" height="5.33" rx=".53" width="5.33" x="16.46" y="31.95"/><rect fill="#79deb4" height="13.33" rx="1.33" width="13.33" x="8.46" y="13.28"/><g fill="#3d3d63"><path d="m23.61 51.33h-9.82a1 1 0 0 1 -1-1v-22.72h7.67a2.33 2.33 0 0 0 2.33-2.33v-10.67a2.33 2.33 0 0 0 -2.33-2.33h-7.67v-2.61a1 1 0 0 1 1-1h18a.34.34 0 0 1 .34.33v6a2.33 2.33 0 0 0 2.33 2.33h6a.33.33 0 0 1 .33.34v13a1 1 0 0 0 2 0v-13a2.32 2.32 0 0 0 -.79-1.67l-5.31-5.31 8.69.84a1 1 0 0 1 .89 1.1l-1.22 12.68a1 1 0 0 0 .9 1.1 1 1 0 0 0 1.09-.9l1.24-12.76a3 3 0 0 0 -2.69-3.28l-11.11-1.08-1-1a2.32 2.32 0 0 0 -1.65-.68h-18a3 3 0 0 0 -3 3v2.61h-1a2.34 2.34 0 0 0 -2.33 2.33v10.63a2.33 2.33 0 0 0 2.33 2.33h1v22.72a3 3 0 0 0 3 3h9.82a1 1 0 0 0 0-2zm10.52-40.47 4.46 4.47h-4.13a.33.33 0 0 1 -.33-.33zm-24.67 14.42v-10.67a.33.33 0 0 1 .33-.33h10.67a.33.33 0 0 1 .33.33v10.67a.33.33 0 0 1 -.33.33h-10.67a.33.33 0 0 1 -.33-.33z"/><path d="m17 31a1.53 1.53 0 0 0 -1.54 1.53v4.27a1.54 1.54 0 0 0 1.54 1.48h4.26a1.53 1.53 0 0 0 1.53-1.53v-4.27a1.52 1.52 0 0 0 -1.53-1.48zm3.79 5.33h-3.33v-3.33h3.33z"/><path d="m35.46 36.64a1 1 0 0 0 -1-1h-8a1 1 0 0 0 0 2h8a1 1 0 0 0 1-1z"/><path d="m26.46 31.59a1 1 0 0 0 0 2h3.33a1 1 0 0 0 0-2z"/><path d="m34.13 23.28a1 1 0 0 0 -1-1h-6.67a1 1 0 0 0 0 2h6.67a1 1 0 0 0 1-1z"/><path d="m26.46 20.22h3.33a1 1 0 0 0 0-2h-3.33a1 1 0 0 0 0 2z"/><path d="m17 17.4-3 3-.86-.86a1 1 0 0 0 -1.41 0 1 1 0 0 0 0 1.42l1.56 1.56a1 1 0 0 0 .71.3 1 1 0 0 0 .71-.3l3.68-3.67a1 1 0 0 0 -1.39-1.45z"/><path d="m51.57 32.4-.51-.51a3.31 3.31 0 0 0 -4.68 0l-14.07 14.11a.88.88 0 0 0 -.24.39l-1.89 5.61a1 1 0 0 0 1.26 1.26l5.66-1.86a1 1 0 0 0 .39-.25l14.08-14.07a3.31 3.31 0 0 0 0-4.68zm-18.86 18.35.74-2.22 1.48 1.47zm4.08-1.75-2.36-2.35 9-9 2.36 2.35zm10.42-10.39-2.36-2.35 1-1 2.35 2.36zm2.94-3-.48.49-2.36-2.3.49-.49a1.31 1.31 0 0 1 1.85 0l.5.5a1.31 1.31 0 0 1 0 1.85z"/></g></svg>