<svg viewBox="0 0 60 60" xmlns="http://www.w3.org/2000/svg"><path d="m0 0h60v60h-60z" fill="none"/><path d="m43.3 12.8-1.3 3.59a7.69 7.69 0 0 1 3.26 2.26l2.9-2.48a11.52 11.52 0 0 0 -4.86-3.37z" fill="#ffa742"/><path d="m50.73 21.54-3.73.69a7.72 7.72 0 0 1 -.31 3.95l3.58 1.28a11.35 11.35 0 0 0 .46-5.92z" fill="#ffa742"/><path d="m47 22.23 3.75-.69a11.38 11.38 0 0 0 -2.55-5.37l-2.9 2.48a7.69 7.69 0 0 0 -3.3-2.26l1.3-3.59a11.35 11.35 0 0 0 -4.11-.64l-.63 13.76 1.44-.38a1.63 1.63 0 0 1 1.57.42l5.86 5.86a11.39 11.39 0 0 0 2.83-4.36l-3.58-1.28a7.72 7.72 0 0 0 .32-3.95z" fill="#f6716f"/><path d="m39 16-.45 10 1.45-.46a1.63 1.63 0 0 1 1.57.42l3.18 3.18a7.58 7.58 0 0 0 2.25-6.91 7.56 7.56 0 0 0 -1.7-3.58 7.56 7.56 0 0 0 -6.3-2.65z" fill="#ffc670"/><path d="m50.52 34.92-9-9a1.63 1.63 0 0 0 -1.52-.38l-1.43.38.76-16.72a1.42 1.42 0 0 0 -1.33-1.48l-20.5-.94a1.41 1.41 0 0 0 -1.5 1.35l-.17 3.81 17-1.49a1.41 1.41 0 0 1 1.53 1.28l1.31 15-8 2.13a1.63 1.63 0 0 0 -1.08 1.14l-3.52 13.12 10.29 10.29 14.06-3.76 3.52-13.15a1.62 1.62 0 0 0 -.42-1.58z" fill="#d8e3f0"/><path d="m26.59 30a1.63 1.63 0 0 1 1.16-1.15l8-2.13-1.31-15a1.41 1.41 0 0 0 -1.53-1.28l-17 1.49-5.54.48a1.41 1.41 0 0 0 -1.37 1.59l3 33.8a1.41 1.41 0 0 0 1.53 1.29l14.29-1.25-4.72-4.72z" fill="#fcfeff"/><path d="m49.19 33.59-8.29-8.29-11.34 3a1.64 1.64 0 0 0 -.73 2.73l7 7a3.31 3.31 0 0 0 3.17.85l9.5-2.55a1.63 1.63 0 0 0 .69-2.74z" fill="#fcfeff"/><path d="m20 38 4.52-.39 2-7.64a1.63 1.63 0 0 1 1.16-1.15l3.18-.82a4.46 4.46 0 0 0 -1-1.26l-7.46-6.26-6.25 7.46a4.35 4.35 0 0 0 .31 6 4.23 4.23 0 0 0 4.29.82.71.71 0 0 1 .84 1 8.12 8.12 0 0 1 -1.59 2.24z" fill="#f6716f"/><g fill="#3d3d63"><path d="m12.63 14.77a1 1 0 0 0 -.91 1.08l.09 1.08a1 1 0 0 0 1 .91h.09a1 1 0 0 0 .91-1.09l-.1-1.07a1 1 0 0 0 -1.08-.91z"/><path d="m51.23 34.21-2.41-2.41a12.45 12.45 0 0 0 -8.58-20.64l.08-1.92a2.41 2.41 0 0 0 -2.32-2.52l-20.47-.94a2.41 2.41 0 0 0 -2.53 2.3l-.13 2.92-4.67.41a2.41 2.41 0 0 0 -2.2 2.59l3 33.85a2.43 2.43 0 0 0 2.62 2.2l13.82-1.21 4.56 4.61a2.65 2.65 0 0 0 1.18.68 2.61 2.61 0 0 0 1.36 0l12.24-3.28a2.61 2.61 0 0 0 1.85-1.85l3.28-12.23a2.66 2.66 0 0 0 -.68-2.56zm-3.81-3.81-1.29-1.29a9 9 0 0 0 1.08-1.67l1.72.61a10.81 10.81 0 0 1 -1.51 2.35zm-7.42-13.4a6.65 6.65 0 0 1 4.74 10.71l-2.44-2.44a2.65 2.65 0 0 0 -2.54-.68h-.11zm9.61 9.18-1.7-.61a9.14 9.14 0 0 0 .18-2.57l1.78-.32a10.21 10.21 0 0 1 -.29 3.48zm-.06-5.41-1.8.33a8.84 8.84 0 0 0 -1.08-2.28l1.33-1.21a10.42 10.42 0 0 1 1.52 3.14zm-5.63-6.63a10.65 10.65 0 0 1 2.86 2l-1.4 1.19a8.75 8.75 0 0 0 -2.08-1.43zm-1.92-.69-.61 1.72a8.36 8.36 0 0 0 -1.33-.17l.08-1.8a10.29 10.29 0 0 1 1.86.25zm-25-5.28a.42.42 0 0 1 .44-.4l20.49 1a.41.41 0 0 1 .4.43l-.74 16-1 .27-1.2-13.76a2.43 2.43 0 0 0 -2.62-2.2l-15.89 1.33zm-3.59 39.92a.42.42 0 0 1 -.45-.37l-2.96-33.85a.42.42 0 0 1 .38-.45l22.57-2a.41.41 0 0 1 .44.38l1.24 14.12-3.34.89a5.77 5.77 0 0 0 -.83-.88l-7.46-6.23a1 1 0 0 0 -1.41.12l-6.26 7.45a5.39 5.39 0 0 0 .41 7.43 5.28 5.28 0 0 0 4.59 1.22 5.75 5.75 0 0 1 -1 1.35 1 1 0 0 0 -.22 1.14 1 1 0 0 0 .89.59h.09l3.09-.27-.83 3.27a2.64 2.64 0 0 0 .65 2.49l2.57 2.51zm10.35-11.42-1.63.14a6.49 6.49 0 0 0 .31-.59 1.72 1.72 0 0 0 -.25-1.92 1.69 1.69 0 0 0 -1.83-.47 3.25 3.25 0 0 1 -3.28-.62 3.38 3.38 0 0 1 -.2-4.65l5.61-6.69 6.61 5.55-1.61.43a2.63 2.63 0 0 0 -1.86 1.86zm22.94 11.8a.64.64 0 0 1 -.45.45l-12.25 3.28a.64.64 0 0 1 -.6-.2l-8.95-9a.61.61 0 0 1 -.17-.61l3.28-12.24a.64.64 0 0 1 .45-.45l12.23-3.2a.69.69 0 0 1 .32 0 .66.66 0 0 1 .29.17l9 9a.62.62 0 0 1 .17.61z"/><path d="m37 37.78-5.21-5.2a1 1 0 1 0 -1.44 1.42l5.21 5.2a1.15 1.15 0 0 1 .29 1.09l-1.91 7.11a1 1 0 0 0 .71 1.23 1.09 1.09 0 0 0 .26 0 1 1 0 0 0 1-.74l1.91-7.11a3.12 3.12 0 0 0 -.82-3z"/><path d="m46.39 36.87a1 1 0 0 0 -1.22-.7l-4.63 1.23a1 1 0 0 0 -.7 1.23 1 1 0 0 0 1 .74 1.15 1.15 0 0 0 .26 0l4.62-1.24a1 1 0 0 0 .67-1.26z"/><path d="m30.46 44.89a2.53 2.53 0 0 0 .6 2.23c.52.53 1.1.38 1.29-.34a2.53 2.53 0 0 0 -.6-2.23c-.52-.55-1.1-.37-1.29.34z"/><path d="m29.73 37.62a2.53 2.53 0 0 0 -.6-2.23c-.52-.52-1.1-.37-1.29.34a2.53 2.53 0 0 0 .6 2.23c.56.53 1.1.38 1.29-.34z"/><path d="m31 42.2a2.53 2.53 0 0 0 -.6-2.23c-.52-.52-1.1-.37-1.29.34a2.53 2.53 0 0 0 .6 2.23c.56.53 1.14.38 1.29-.34z"/><path d="m40 33.27a.71.71 0 0 0 .3-1.27 2.54 2.54 0 0 0 -2.23-.6.7.7 0 0 0 -.34 1.29 2.53 2.53 0 0 0 2.27.58z"/><path d="m46 39.92a2.54 2.54 0 0 0 -1.63 1.64c-.19.71.24 1.13 1 .94a2.55 2.55 0 0 0 1.63-1.64c.18-.71-.25-1.13-1-.94z"/><path d="m39.18 46.55a2.55 2.55 0 0 0 -1.63 1.63c-.19.71.24 1.13 1 .94a2.54 2.54 0 0 0 1.64-1.63c.14-.72-.29-1.13-1.01-.94z"/></g></svg>