<svg viewBox="0 0 60 60" xmlns="http://www.w3.org/2000/svg"><path d="m0 0v60h60v-60z" fill="none"/><path d="m7.33 51.85h9.27v-25.02l-9.26 5.45z" fill="#fff6e6"/><path d="m55.72 13.82a1 1 0 0 0 -1.09.22l-6.78 6.77a1 1 0 0 0 -.29.71v30.33h8.77v-37.1a1 1 0 0 0 -.61-.93z" fill="#fff6e6"/><path d="m48.56 22.28v29.57h-15.98v-25.95l7.99 3.61 7.23-7.23z" fill="#96ddff"/><path d="m47.8 22.28-7.23 7.23-7.99-3.61v2l7.99 3.61 7.23-7.23h.76v-2z" fill="#c7ecff"/><path d="m40.57 45.26-7.99-3.61v10.2h15.98v-13.82h-.76z" fill="#69baf9"/><path d="m32.58 25.9v25.95h-15.98v-25.02l7.48-4.78z" fill="#f6716f"/><path d="m24.08 22.05-7.48 4.78v2l7.48-4.78 8.5 3.85v-2z" fill="#f6a2a2"/><path d="m16.6 43.44v8.41h15.98v-9.34l-8.5-3.85z" fill="#f0504d"/><circle cx="24.08" cy="22.05" fill="#edf4ff" r="3.51"/><circle cx="40.57" cy="29.56" fill="#edf4ff" r="3.51"/><g fill="#3d3d63"><path d="m55.33 21.29a1 1 0 0 0 1-1v-5.54a1 1 0 0 0 -1-1h-5.54a1 1 0 1 0 0 2h3.13l-5.07 5.08-4.85 4.91a4.46 4.46 0 0 0 -6 1.09l-3.94-1.83a1 1 0 0 0 -.18-.08l-4.38-1.92a4.52 4.52 0 1 0 -8.68.52l-11.49 7v-10.82l.45.44a1 1 0 1 0 1.41-1.41l-2.19-2.15a1 1 0 0 0 -1-.22 1 1 0 0 0 -.62.93v34.56a1 1 0 0 0 1 1h48a1 1 0 0 0 .62-1.71l-2.11-2.14a1 1 0 0 0 -1.42 1.42l.45.44h-3.36v-28.86l4.77-4.78v3.12a1 1 0 0 0 1 .95zm-14.76 5.71a2.52 2.52 0 1 1 -2.52 2.52 2.52 2.52 0 0 1 2.52-2.52zm-16.49-7.5a2.51 2.51 0 1 1 -2.51 2.51 2.51 2.51 0 0 1 2.51-2.47zm-1 6.9v3.69a1 1 0 0 0 2 0v-3.65a4.48 4.48 0 0 0 2.57-1.66l3.92 1.78v24.29h-6.49v-3.34a1 1 0 0 0 -2 0v3.34h-5.48v-23.67l3.25-2a4.49 4.49 0 0 0 2.23 1.26zm-14.75 6.45 7.27-4.44v22.44h-7.27zm39.23 18h-6v-3.34a1 1 0 0 0 -2 0v3.34h-6v-23.38l2.58 1.17a4.63 4.63 0 0 0 -.1.92 4.52 4.52 0 0 0 3.53 4.44v3.69a1 1 0 0 0 2 0v-3.69a4.49 4.49 0 0 0 2.8-6.8l3.19-3.2z"/><path d="m24.08 42.72a1 1 0 0 0 1-1v-5.8a1 1 0 0 0 -2 0v5.8a1 1 0 0 0 1 1z"/></g></svg>