<svg viewBox="0 0 60 60" xmlns="http://www.w3.org/2000/svg"><path d="m47.71 9.37h-35.38a2.3 2.3 0 0 0 -2.33 2.29v41.92a2.3 2.3 0 0 0 2.29 2.3h21.4a1 1 0 0 0 .78-1.59 13.57 13.57 0 0 1 -2.28-4.48 1 1 0 0 0 -.3-.46l-.24-.23a4.47 4.47 0 0 1 -1.32-3.18 15 15 0 0 1 7.49-13 4.44 4.44 0 0 1 3.4-.45l.34.1a1.06 1.06 0 0 0 .56 0 13.35 13.35 0 0 1 6.64.08 1 1 0 0 0 1.24-.89v-20.12a2.3 2.3 0 0 0 -2.29-2.29z" fill="#ffdead"/><path d="m0 0h60v60h-60z" fill="none"/><path d="m33.29 9v-2a2 2 0 0 0 -2-2h-2.58a2 2 0 0 0 -2 2v2h-3.24v4h13.1v-4z" fill="#96ddff"/><circle cx="45.3" cy="45.94" fill="#79deb4" r="9.17"/><path d="m34.83 45.94h10.47l-5.24-9.08a10.46 10.46 0 0 0 -5.23 9.08z" fill="#fcfeff"/><path d="m44.43 15.92h-28.82a1 1 0 0 0 -1 1v34.08a1 1 0 0 0 1 1h15.93a1 1 0 0 0 .8-.42 1 1 0 0 0 .12-.9c-.09-.27-.19-.54-.27-.82a1 1 0 0 0 -.3-.46l-.24-.23a4.47 4.47 0 0 1 -1.32-3.18 15 15 0 0 1 7.49-13 4.44 4.44 0 0 1 3.4-.45l.34.1a1.06 1.06 0 0 0 .56 0 12.77 12.77 0 0 1 2.37-.33 1 1 0 0 0 .92-1v-14.41a1 1 0 0 0 -.98-.98z" fill="#fff6e6"/><circle cx="15.61" cy="23.62" fill="#ffa742" r="7.86"/><g fill="#3d3d63"><path d="m34 53.91h-21.67a.32.32 0 0 1 -.32-.33v-21.9a8.48 8.48 0 0 0 2.62.72v18.6a1 1 0 0 0 1 1h12.26a1 1 0 0 0 0-2h-11.3v-17.6a8.83 8.83 0 0 0 5.74-14.52h21.12v13.43a1 1 0 0 0 2 0v-14.41a1 1 0 0 0 -1-1h-24.45a8.73 8.73 0 0 0 -8-.35v-3.89a.32.32 0 0 1 .32-.33h10.17v1.67a1 1 0 0 0 1 1h13.1a1 1 0 0 0 1-1v-1.67h10.12a.32.32 0 0 1 .32.33v20.59a1 1 0 0 0 2 0v-20.59a2.3 2.3 0 0 0 -2.29-2.29h-10.19v-.37a1 1 0 0 0 -1-1h-2.27v-1a3 3 0 0 0 -3-2.95h-2.57a3 3 0 0 0 -2.95 3v1h-2.29a1 1 0 0 0 -1 1v.33h-10.14a2.3 2.3 0 0 0 -2.33 2.28v5.09a8.84 8.84 0 0 0 0 13.73v23.1a2.3 2.3 0 0 0 2.29 2.3h21.71a1 1 0 0 0 0-2zm-5.29-47.82h2.62a1 1 0 0 1 1 1v1h-4.6v-1a1 1 0 0 1 .98-1zm-4.26 3.91h11.14v2h-11.14zm-15.72 13.62a6.88 6.88 0 1 1 6.9 6.87 6.89 6.89 0 0 1 -6.9-6.87z"/><path d="m45.3 35.79a10.23 10.23 0 0 0 -4.19.92l-.2-.34a1 1 0 0 0 -1.34-.37 11.51 11.51 0 0 0 -5.72 9.93 1 1 0 0 0 1 1h.37a10.15 10.15 0 1 0 10.08-11.14zm-5.57 2.46 3.87 6.75h-7.73a9.54 9.54 0 0 1 3.86-6.75zm5.57 15.88a8.19 8.19 0 0 1 -8.12-7.21h8.12a1 1 0 0 0 .85-1.47l-4.06-7a8.19 8.19 0 1 1 3.21 15.68z"/><path d="m24.33 34.49a1 1 0 0 0 -1.39 0l-2.94 2.9a1 1 0 0 0 0 1.39.94.94 0 0 0 .69.29 1 1 0 0 0 .7-.29l2.2-2.2 2 2a1 1 0 0 0 1.39 0l3.77-3.78 1.72 1.72a1 1 0 0 0 1.39 0l6.14-6.05a1 1 0 0 0 0-1.39 1 1 0 0 0 -1.39 0l-5.38 5.39-1.72-1.72a1 1 0 0 0 -1.39 0l-3.78 3.78z"/><path d="m12.93 24.56a2.59 2.59 0 0 0 2 .26l1.9-.51a.63.63 0 0 1 .5.07.59.59 0 0 1 .3.39.66.66 0 0 1 -.46.81l-2.85.76a1 1 0 0 0 .26 1.93c.08 0 1.2-.29 1.2-.29l.09.32a1 1 0 0 0 .94.73.78.78 0 0 0 .26 0 1 1 0 0 0 .69-1.2l-.08-.32a2.62 2.62 0 1 0 -1.36-5.06l-1.89.51a.67.67 0 0 1 -.5-.06.69.69 0 0 1 -.31-.4.66.66 0 0 1 .47-.8l2.84-.77a1 1 0 0 0 .7-1.2 1 1 0 0 0 -1.23-.73l-.94.26-.09-.32a1 1 0 0 0 -1.9.51l.09.32a2.62 2.62 0 0 0 -.63 4.8z"/><path d="m39.33 21h-11.79a1 1 0 1 0 0 2h11.79a1 1 0 1 0 0-2z"/><path d="m39.33 24.27h-7.21a1 1 0 0 0 0 2h7.21a1 1 0 0 0 0-2z"/></g></svg>