<svg viewBox="0 0 60 60" xmlns="http://www.w3.org/2000/svg"><path d="m0 0h60v60h-60z" fill="none"/><path d="m33.09 19.11a7.79 7.79 0 0 0 6.48-2.22l.32-.32 10.53 10.53-1.24 1.24a8.25 8.25 0 0 0 -2.26 4.24 8.28 8.28 0 0 1 -2.25 4.24l-10.43 10.42-9.72-9.72-4.19-4.18-2.87-2.87 9.15-9.15a7.75 7.75 0 0 1 6.48-2.21z" fill="#ffdead"/><path d="m46.58 33.81c.75-2.5-7.76-5.89-7.76-5.89l-6-1.84-.82 2.25 4.79 4.86 3.21 5.94 2 .37 2.69-2.68a8.3 8.3 0 0 0 1.89-3.01z" fill="#ffc670"/><path d="m33.09 19.11a7.79 7.79 0 0 0 6.48-2.22l.32-.32 10.53 10.53-1.24 1.24a8.25 8.25 0 0 0 -2.26 4.24 8.28 8.28 0 0 1 -2.25 4.24l-10.43 10.42-9.72-9.72-4.19-4.18-2.87-2.87 9.15-9.15a7.75 7.75 0 0 1 6.48-2.21z" fill="none"/><rect fill="#96ddff" height="20.5" rx="2" transform="matrix(.70710678 .70710678 -.70710678 .70710678 17.61 -3.2)" width="6.31" x="9.52" y="9.41"/><path d="m6.66 21.21 4.46 4.46-2 2a2 2 0 0 1 -2.83 0l-1.68-1.58a2 2 0 0 1 0-2.83z" fill="#69baf9"/><rect fill="none" height="20.5" rx="2" transform="matrix(.70710678 .70710678 -.70710678 .70710678 17.61 -3.2)" width="6.31" x="9.52" y="9.41"/><path d="m31.06 24.73-3.79 3.78-3.92-3.92 4.59-4.59-4-.5a3 3 0 0 1 -1.75-.86l-2.06-2.06-10.55 10.52 3.28 3.28a4.15 4.15 0 0 1 1.08 1.87 10.55 10.55 0 0 0 2.73 4.75l9.06 9.07 9.14-9.14 4.19-4.19z" fill="#fff6e6"/><rect fill="#ffc670" height="20.5" rx="2" transform="matrix(-.70710678 .70710678 -.70710678 -.70710678 94.7 .1)" width="6.31" x="44.18" y="9.41"/><path d="m53.34 21.21-4.46 4.46 2 2a2 2 0 0 0 2.83 0l1.63-1.63a2 2 0 0 0 0-2.83z" fill="#ff9a42"/><rect fill="none" height="20.5" rx="2" transform="matrix(-.70710678 .70710678 -.70710678 -.70710678 94.7 .1)" width="6.31" x="44.18" y="9.41"/><g fill="#fff6e6"><path d="m33.73 27.4 10.15 10.14a2.35 2.35 0 0 1 0 3.33 2.37 2.37 0 0 1 -3.34 0l-10.14-10.14"/><path d="m30.4 30.73 12.77 12.77a2.35 2.35 0 0 1 0 3.33 2.35 2.35 0 0 1 -3.33 0l-12.77-12.77"/><path d="m27.07 34.06 10.14 10.14a2.37 2.37 0 0 1 0 3.34 2.35 2.35 0 0 1 -3.33 0l-10.14-10.15"/><path d="m23.74 37.39 7.59 7.61a2.35 2.35 0 0 1 0 3.33 2.35 2.35 0 0 1 -3.33 0l-7.59-7.6"/></g><g fill="#ffdead"><circle cx="18.93" cy="39.24" r="2.36"/><circle cx="22.26" cy="42.57" r="2.36"/><circle cx="25.59" cy="45.9" r="2.36"/><path d="m39.23 27.94a12.64 12.64 0 0 1 -5.87-1.6 3.77 3.77 0 0 0 -4.51.59l-3.31 3.31a2.76 2.76 0 0 1 -3.92 0 2.76 2.76 0 0 1 0-3.92l5.21-5.22"/></g><path d="m56.08 22.58-11.67-11.67a3 3 0 0 0 -4.2 0l-1.63 1.63a3 3 0 0 0 -.13 4.05 6.84 6.84 0 0 1 -5.24 1.55 8.83 8.83 0 0 0 -5.08.91h-.07l-4-.51a2 2 0 0 1 -1.18-.58l-1.33-1.33a3 3 0 0 0 -.11-4.07l-1.63-1.63a3 3 0 0 0 -4.2 0l-11.69 11.65a3 3 0 0 0 0 4.2l1.63 1.63a3 3 0 0 0 4.07.11l2.56 2.55a3.31 3.31 0 0 1 .82 1.43 11.52 11.52 0 0 0 3 5.17 3.32 3.32 0 0 0 2.93 4.88 3.31 3.31 0 0 0 3.33 3.33 3.37 3.37 0 0 0 1 2.36 3.3 3.3 0 0 0 3.91.57l.18.18a3.31 3.31 0 0 0 5.46-1.2l.41.41a3.32 3.32 0 0 0 4.71 0 3.15 3.15 0 0 0 .73-1.2l.49.49a3.33 3.33 0 0 0 4.71-4.71l-.49-.49a3.15 3.15 0 0 0 1.19-.76 3.3 3.3 0 0 0 1-2.35 3.25 3.25 0 0 0 -.38-1.51l.19-.2a9.1 9.1 0 0 0 2.53-4.73 7.16 7.16 0 0 1 2-3.74l.51-.51a3 3 0 0 0 4.07-.11l1.63-1.63a3 3 0 0 0 -.03-4.17zm-49.15 4.42-1.63-1.59a1 1 0 0 1 0-1.41l11.7-11.71a1 1 0 0 1 1.45 0l1.55 1.63a1 1 0 0 1 0 1.45l-11.62 11.63a1 1 0 0 1 -1.45 0zm11.07 13.22a1.39 1.39 0 0 1 0-2 1.39 1.39 0 0 1 1.95 0 1.38 1.38 0 0 1 -1.95 2zm3.33 3.33a1.38 1.38 0 0 1 1-2.36 1.35 1.35 0 0 1 1 .4 1.4 1.4 0 0 1 0 2 1.41 1.41 0 0 1 -2.05-.04zm3.33 3.33a1.38 1.38 0 0 1 0-2 1.41 1.41 0 0 1 1-.4 1.38 1.38 0 1 1 -1 2.36zm18.58-6.69a1.43 1.43 0 0 1 -2 0l-10.15-10.19a1 1 0 1 0 -1.38 1.38l12.77 12.81a1.39 1.39 0 0 1 .41 1 1.36 1.36 0 0 1 -.41 1 1.39 1.39 0 0 1 -1.95 0l-12.77-12.82a1 1 0 0 0 -1.38 1.38l10.15 10.14a1.39 1.39 0 0 1 -2 2l-10.1-10.19a1 1 0 0 0 -1.38 1.38l7.6 7.6a1.38 1.38 0 1 1 -2 2l-.18-.18a3.3 3.3 0 0 0 -2.93-4.87 3.26 3.26 0 0 0 -3.33-3.3 3.31 3.31 0 0 0 -4.87-3 9.56 9.56 0 0 1 -2.46-4.33 5 5 0 0 0 -1.33-2.3l-2.55-2.54 9.16-9.16 1.32 1.32a4 4 0 0 0 2.31 1.13l2.06.26-4.92 4.92a3.75 3.75 0 1 0 5.3 5.3l3.31-3.31a2.77 2.77 0 0 1 2.27-.77l11.38 11.38a1.38 1.38 0 0 1 .4 1 1.39 1.39 0 0 1 -.4.96zm2.76-7.8a7.27 7.27 0 0 1 -2 3.74l-.07.07-7.73-7.71a13.24 13.24 0 0 0 3 .42.93.93 0 0 0 1-.95 1 1 0 0 0 -1-1 11.79 11.79 0 0 1 -5.41-1.48 4.76 4.76 0 0 0 -5.67.75l-3.31 3.31a1.8 1.8 0 1 1 -2.5-2.54l5-5a6.86 6.86 0 0 1 5.69-1.93 8.78 8.78 0 0 0 6.81-2.07l9.19 9.16-.5.49a9.15 9.15 0 0 0 -2.5 4.74zm8.73-7-1.66 1.61a1 1 0 0 1 -1.45 0l-11.62-11.63a1 1 0 0 1 0-1.45l1.63-1.63a1 1 0 0 1 1.45 0l11.62 11.71a1 1 0 0 1 0 1.41z" fill="#3d3d63"/></svg>